<svg width="156" height="155" viewBox="0 0 156 155" fill="none" xmlns="http://www.w3.org/2000/svg">
<rect x="0.490723" width="155.509" height="154.265" fill="#0280CD"/>
<path d="M50.1403 99.926H48.6403C48.3883 98.93 47.7523 98.222 46.5043 98.222C44.6683 98.222 43.9003 99.842 43.9003 101.486C43.9003 103.13 44.6683 104.75 46.5043 104.75C47.8483 104.75 48.5563 103.754 48.6883 102.506H50.1523C50.0203 104.558 48.5803 105.974 46.5043 105.974C43.9483 105.974 42.4003 103.946 42.4003 101.486C42.4003 99.05 43.9483 96.998 46.5043 96.998C48.4483 96.998 49.9483 98.078 50.1403 99.926ZM51.0004 102.914H52.5004C52.5004 104.222 53.4724 104.75 54.6724 104.75C55.9924 104.75 56.4844 104.09 56.4844 103.454C56.4844 102.794 56.1244 102.53 55.7764 102.398C55.1644 102.17 54.4084 102.014 53.2204 101.69C51.7444 101.306 51.3244 100.406 51.3244 99.518C51.3244 97.79 52.9084 96.998 54.4564 96.998C56.2324 96.998 57.7444 97.946 57.7444 99.734H56.2444C56.1604 98.63 55.4404 98.222 54.3964 98.222C53.7004 98.222 52.8244 98.474 52.8244 99.338C52.8244 99.95 53.2324 100.262 53.8444 100.442C53.9764 100.478 55.8724 100.97 56.3164 101.102C57.4324 101.45 57.9844 102.374 57.9844 103.286C57.9844 105.206 56.2684 105.974 54.5764 105.974C52.6204 105.974 51.0364 105.038 51.0004 102.914ZM59.2977 105.77V97.202H62.8497C65.4897 97.202 66.6297 99.122 66.6297 101.486C66.6297 103.85 65.4897 105.77 62.8497 105.77H59.2977ZM60.7977 98.426V104.546H62.2737C64.6257 104.546 65.1297 103.214 65.1297 101.486C65.1297 99.758 64.6257 98.426 62.2737 98.426H60.7977ZM67.9578 105.77V97.202H69.4578V104.474H73.8138V105.77H67.9578ZM79.6403 105.77L77.3843 99.566H78.8723L80.4443 104.33H80.4683L81.9803 99.566H83.3963L81.1763 105.77H79.6403ZM89.6669 99.566V105.77H88.3229V104.906H88.2989C87.9629 105.53 87.2189 105.938 86.5349 105.938C84.9029 105.938 84.2189 105.134 84.2189 103.502V99.566H85.5869V103.37C85.5869 104.462 86.0189 104.858 86.7749 104.858C87.9149 104.858 88.2989 104.126 88.2989 103.166V99.566H89.6669ZM87.6269 107.822H86.2589V106.526H87.6269V107.822ZM96.0934 105.77L93.8374 99.566H95.3254L96.8974 104.33H96.9214L98.4334 99.566H99.8494L97.6294 105.77H96.0934ZM100.708 98.498V97.202H102.076V98.498H100.708ZM100.708 105.77V99.566H102.076V105.77H100.708ZM104.635 102.122H107.827C107.767 101.258 107.203 100.478 106.267 100.478C105.319 100.478 104.671 101.198 104.635 102.122ZM109.195 103.022H104.635C104.635 103.994 105.163 104.858 106.303 104.858C107.107 104.858 107.575 104.51 107.815 103.826H109.111C108.823 105.182 107.647 105.938 106.303 105.938C104.347 105.938 103.267 104.594 103.267 102.674C103.267 100.91 104.419 99.398 106.267 99.398C108.223 99.398 109.423 101.162 109.195 103.022ZM106.255 97.706L105.415 98.786H104.311L105.595 97.07H106.927L108.223 98.786H107.107L106.255 97.706ZM106.951 107.822H105.583V106.526H106.951V107.822ZM115.791 101.642H114.423C114.315 100.874 113.775 100.478 113.007 100.478C112.299 100.478 111.303 100.862 111.303 102.734C111.303 103.766 111.759 104.858 112.947 104.858C113.751 104.858 114.291 104.342 114.423 103.442H115.791C115.539 105.062 114.543 105.938 112.947 105.938C111.003 105.938 109.935 104.558 109.935 102.734C109.935 100.862 110.955 99.398 112.995 99.398C114.435 99.398 115.659 100.118 115.791 101.642ZM117.011 105.77V104.15H118.679V105.77C118.667 106.766 118.019 107.474 117.059 107.666V106.934C117.587 106.802 117.851 106.286 117.839 105.77H117.011ZM29.2379 120.77L26.9819 114.566H28.4699L30.0419 119.33H30.0659L31.5779 114.566H32.9939L30.7739 120.77H29.2379ZM39.7686 114.674L40.8006 114.086L41.5806 115.442L40.6566 115.97C40.2726 116.198 39.8646 116.354 39.4926 116.354C39.4086 116.354 39.3486 116.342 39.2646 116.33V120.77H37.9206V119.906H37.8966C37.5606 120.53 36.8166 120.938 36.1326 120.938C34.5006 120.938 33.8166 120.134 33.8166 118.502V114.566H35.1846V118.37C35.1846 119.462 35.6166 119.858 36.3726 119.858C37.5126 119.858 37.8966 119.126 37.8966 118.166V114.566H39.2646V115.67C39.4926 115.67 39.7686 115.574 40.1646 115.346L39.7686 114.674ZM47.9854 114.674L49.0174 114.086L49.7974 115.442L48.8734 115.97C48.4894 116.198 48.0814 116.354 47.7094 116.354C47.8534 116.75 47.9254 117.194 47.9254 117.662C47.9254 119.57 46.7734 120.938 44.7934 120.938C42.8134 120.938 41.6614 119.57 41.6614 117.662C41.6614 115.778 42.8134 114.398 44.7934 114.398C45.9574 114.398 46.8454 114.866 47.3614 115.67C47.6854 115.67 47.9614 115.574 48.3814 115.346L47.9854 114.674ZM44.7934 119.858C46.0174 119.858 46.5574 118.742 46.5574 117.662C46.5574 116.594 46.0174 115.478 44.7934 115.478C43.5694 115.478 43.0294 116.594 43.0294 117.662C43.0294 118.742 43.5694 119.858 44.7934 119.858ZM43.8214 113.702L44.9014 111.986H46.5214L44.8174 113.702H43.8214ZM50.1643 120.77V114.566H51.4603V115.478L51.4843 115.502C51.9043 114.818 52.6003 114.398 53.4163 114.398C54.7723 114.398 55.6123 115.106 55.6123 116.51V120.77H54.2443V116.87C54.2083 115.898 53.8483 115.478 53.0323 115.478C52.1203 115.478 51.5323 116.198 51.5323 117.11V120.77H50.1643ZM62.7909 114.566V120.446C62.7909 122.318 61.7109 123.23 59.7429 123.23C58.4949 123.23 57.1029 122.75 56.9709 121.298H58.3389C58.5069 122.078 59.1309 122.21 59.8269 122.21C60.9309 122.21 61.4229 121.646 61.4229 120.626V119.678H61.3989C61.0149 120.362 60.3069 120.77 59.5389 120.77C57.5709 120.77 56.7549 119.282 56.7549 117.506C56.7549 115.838 57.7989 114.398 59.5629 114.398C60.3429 114.398 61.0509 114.71 61.3989 115.418H61.4229V114.566H62.7909ZM59.7549 119.69C60.9669 119.69 61.4229 118.598 61.4229 117.53C61.4229 116.462 60.9429 115.478 59.7549 115.478C58.5429 115.478 58.1229 116.606 58.1229 117.638C58.1229 118.646 58.6149 119.69 59.7549 119.69ZM67.508 120.77V114.566H68.804V115.43H68.84C69.26 114.818 69.752 114.398 70.748 114.398C71.504 114.398 72.212 114.722 72.488 115.43C72.956 114.794 73.52 114.398 74.432 114.398C75.74 114.398 76.508 114.986 76.508 116.486V120.77H75.14V117.146C75.14 116.15 75.08 115.478 74.012 115.478C73.088 115.478 72.692 116.078 72.692 117.134V120.77H71.324V116.786C71.324 115.922 71.06 115.478 70.232 115.478C69.524 115.478 68.876 116.066 68.876 117.086V120.77H67.508ZM83.1454 116.198V119.39C83.1454 119.726 83.2174 119.858 83.4694 119.858H83.6134C83.6734 119.858 83.7334 119.846 83.8054 119.834V120.782C83.6014 120.854 83.1694 120.938 82.9414 120.938C82.3774 120.938 81.9934 120.746 81.8854 120.182C81.3454 120.71 80.4694 120.938 79.7374 120.938C78.6214 120.938 77.6134 120.338 77.6134 119.126C77.6134 117.578 78.8494 117.326 80.0014 117.194C80.9974 117.002 81.8614 117.134 81.8614 116.318C81.8614 115.598 81.1174 115.478 80.5774 115.478C79.8094 115.478 79.2694 115.79 79.2094 116.462H77.8414C77.9374 114.866 79.2814 114.398 80.6614 114.398C81.8734 114.398 83.1454 114.89 83.1454 116.198ZM81.7774 118.682V117.662C81.3574 117.938 80.7094 117.926 80.0974 118.034C79.5094 118.13 78.9814 118.346 78.9814 119.066C78.9814 119.69 79.7614 119.858 80.2414 119.858C80.8414 119.858 81.7774 119.546 81.7774 118.682ZM78.7774 112.094H79.4734C79.6054 112.766 80.1214 113.006 80.7574 113.006C81.3694 113.006 81.8374 112.706 81.9694 112.094H82.6534C82.5214 113.234 81.7654 113.786 80.6614 113.786C79.5574 113.786 78.8734 113.198 78.7774 112.094ZM80.3494 111.818L81.4294 110.102H83.0494L81.3454 111.818H80.3494ZM90.1734 116.642H88.8054C88.6974 115.874 88.1574 115.478 87.3894 115.478C86.6814 115.478 85.6854 115.862 85.6854 117.734C85.6854 118.766 86.1414 119.858 87.3294 119.858C88.1334 119.858 88.6734 119.342 88.8054 118.442H90.1734C89.9214 120.062 88.9254 120.938 87.3294 120.938C85.3854 120.938 84.3174 119.558 84.3174 117.734C84.3174 115.862 85.3374 114.398 87.3774 114.398C88.8174 114.398 90.0414 115.118 90.1734 116.642ZM94.6612 123.062V114.566H95.9572V115.406H95.9812C96.3652 114.686 97.0972 114.398 97.9012 114.398C99.8572 114.398 100.805 115.874 100.805 117.698C100.805 119.378 99.9532 120.938 98.1292 120.938C97.3372 120.938 96.4732 120.65 96.0532 119.966H96.0292V123.062H94.6612ZM99.4372 117.674C99.4372 116.558 98.8492 115.478 97.7212 115.478C96.5692 115.478 95.9812 116.342 95.9812 117.674C95.9812 118.922 96.6172 119.858 97.7212 119.858C98.9692 119.858 99.4372 118.754 99.4372 117.674ZM101.961 120.77V112.202H103.329V115.382H103.353C103.689 114.818 104.397 114.398 105.213 114.398C106.569 114.398 107.409 115.106 107.409 116.51V120.77H106.041V116.87C106.005 115.898 105.645 115.478 104.829 115.478C103.917 115.478 103.329 116.198 103.329 117.11V120.77H101.961ZM114.048 116.198V119.39C114.048 119.726 114.12 119.858 114.372 119.858H114.516C114.576 119.858 114.636 119.846 114.708 119.834V120.782C114.504 120.854 114.072 120.938 113.844 120.938C113.28 120.938 112.896 120.746 112.788 120.182C112.248 120.71 111.372 120.938 110.64 120.938C109.524 120.938 108.516 120.338 108.516 119.126C108.516 117.578 109.752 117.326 110.904 117.194C111.9 117.002 112.764 117.134 112.764 116.318C112.764 115.598 112.02 115.478 111.48 115.478C110.712 115.478 110.172 115.79 110.112 116.462H108.744C108.84 114.866 110.184 114.398 111.564 114.398C112.776 114.398 114.048 114.89 114.048 116.198ZM112.68 118.682V117.662C112.26 117.938 111.612 117.926 111 118.034C110.412 118.13 109.884 118.346 109.884 119.066C109.884 119.69 110.664 119.858 111.144 119.858C111.744 119.858 112.68 119.546 112.68 118.682ZM110.82 113.702L111.9 111.986H113.52L111.816 113.702H110.82ZM115.556 123.062V114.566H116.852V115.406H116.876C117.26 114.686 117.992 114.398 118.796 114.398C120.752 114.398 121.7 115.874 121.7 117.698C121.7 119.378 120.848 120.938 119.024 120.938C118.232 120.938 117.368 120.65 116.948 119.966H116.924V123.062H115.556ZM120.332 117.674C120.332 116.558 119.744 115.478 118.616 115.478C117.464 115.478 116.876 116.342 116.876 117.674C116.876 118.922 117.512 119.858 118.616 119.858C119.864 119.858 120.332 118.754 120.332 117.674ZM126.232 120.77V112.202H127.6V120.77H126.232ZM130.758 120.746L128.406 114.566H129.906L131.526 119.198H131.55L133.122 114.566H134.55L132.138 121.106C131.694 122.222 131.382 123.23 129.942 123.23C129.618 123.23 129.306 123.206 128.994 123.158V122.006C129.222 122.042 129.414 122.09 129.642 122.09C130.266 122.09 130.446 121.754 130.602 121.226L130.758 120.746ZM131.022 113.702L132.102 111.986H133.722L132.018 113.702H131.022Z" fill="#FFFDFD"/>
<path fill-rule="evenodd" clip-rule="evenodd" d="M63.2835 19.6407C63.0409 19.7182 62.7434 19.9949 62.6177 20.2598C62.5072 20.4928 62.5056 20.5513 62.5056 24.4467V28.3973H60.3624C58.9848 28.3973 58.1193 28.4192 57.9394 28.4585C57.5442 28.545 57.1785 28.9181 57.0937 29.3213C57.0533 29.5135 57.0338 30.661 57.0338 32.8331V36.0595L55.3305 36.0607C53.4517 36.062 53.3728 36.0746 53.0534 36.422C52.7174 36.7877 52.7421 35.6641 52.7421 50.5514V64.1163L52.8896 64.4132C53.0004 64.6361 53.1029 64.751 53.3011 64.8745L53.5652 65.039L63.8694 65.0532L74.1736 65.0674L74.3488 65.4637C74.7241 66.313 75.3051 66.9136 76.1584 67.335C76.9101 67.7061 77.0137 67.7207 78.8943 67.7207C80.488 67.7207 80.5741 67.7154 80.9597 67.5925C82.0764 67.2368 82.886 66.5298 83.3658 65.4911L83.5615 65.0676L93.8657 65.0532L104.17 65.039L104.431 64.8739C104.622 64.7538 104.734 64.6292 104.843 64.4161L104.993 64.1234L104.993 50.5977C104.992 41.9911 104.973 37.0023 104.94 36.8805C104.867 36.6127 104.585 36.283 104.326 36.1631C104.129 36.0716 103.945 36.0618 102.407 36.0607L100.706 36.0595L100.69 32.6799C100.674 29.3079 100.674 29.2999 100.555 29.0731C100.392 28.7618 100.092 28.5235 99.7774 28.4546C99.6019 28.4162 96.8809 28.3974 91.5118 28.3977C82.7385 28.398 82.9503 28.3908 81.9781 28.7231C81.0273 29.0481 80.2266 29.5375 79.5275 30.2209L79.0878 30.6507L78.8392 30.1456C78.4773 29.4106 78.0475 28.7232 77.5773 28.1275C77.0978 27.52 76.7467 27.1714 76.1852 26.7455C75.9639 26.5776 73.143 24.9078 69.9166 23.0347C64.3246 19.7884 64.0362 19.6282 63.7474 19.6092C63.5807 19.5982 63.372 19.6124 63.2835 19.6407ZM70.0809 25.862C72.8251 27.4567 74.8042 28.6408 74.9895 28.7986C75.9293 29.5986 76.7742 30.9515 77.2529 32.4228C77.6976 33.7899 77.6553 32.4086 77.6731 46.1222L77.6889 58.3468L77.1114 57.751C76.5044 57.1246 75.9789 56.6961 75.3537 56.3176C75.1472 56.1926 72.6969 54.7657 69.9087 53.1468L64.8392 50.2032L64.8257 36.5043L64.8121 22.8054L65.1475 22.9976C65.332 23.1033 67.552 24.3923 70.0809 25.862ZM62.5056 40.9745V51.1434L62.6429 51.4245C62.7195 51.5814 62.8558 51.7553 62.9513 51.818C63.0455 51.8799 65.6452 53.3973 68.7285 55.19C73.6453 58.0489 74.9263 58.8123 74.4954 58.627C74.4364 58.6016 71.0145 58.574 66.8911 58.5657L59.3942 58.5505V44.678V30.8054H60.9499H62.5056V40.9745ZM98.3408 44.6795V58.5535H91.0504C84.073 58.5535 83.7337 58.5581 83.1494 58.6599C82.1735 58.8302 81.1654 59.22 80.3427 59.7454L80.0745 59.9167L80.06 47.1262C80.0469 35.5991 80.0539 34.2923 80.1311 33.8977C80.4187 32.4258 81.3674 31.3872 82.8373 30.9351L83.2396 30.8113L90.7902 30.8084L98.3408 30.8054V44.6795ZM84.1078 36.9592C83.7485 37.0909 83.516 37.3437 83.4001 37.7288C83.2494 38.2292 83.4221 38.7345 83.8482 39.04L84.0803 39.2065L89.1855 39.2216C94.9168 39.2387 94.5773 39.2614 94.9346 38.8356C95.4039 38.2762 95.2689 37.4302 94.6513 37.0598L94.3979 36.9078L89.3552 36.896C85.1962 36.8862 84.2766 36.8973 84.1078 36.9592ZM84.0727 41.5387C83.1521 41.9135 83.1009 43.2162 83.9874 43.7119C84.1379 43.7961 84.5805 43.8038 89.2747 43.8038H94.3979L94.6513 43.6518C95.4339 43.1825 95.3816 41.9608 94.5626 41.5814C94.355 41.4852 94.0943 41.4803 89.2747 41.4824C86.0745 41.4838 84.1564 41.5046 84.0727 41.5387ZM84.1041 46.1009C83.6229 46.2759 83.264 46.8818 83.3512 47.3719C83.4344 47.8396 83.7293 48.2062 84.1138 48.3203C84.2499 48.3606 85.5229 48.3741 88.1528 48.3628L91.9931 48.3464L92.2091 48.1936C93.005 47.6308 92.7961 46.317 91.8731 46.0799C91.7168 46.0397 90.4479 46.0211 87.9769 46.0227C84.9962 46.0247 84.2736 46.0393 84.1041 46.1009Z" fill="#FFFDFD"/>
</svg>
