<svg width="156" height="156" viewBox="0 0 156 156" fill="none" xmlns="http://www.w3.org/2000/svg">
<rect y="0.170654" width="155.509" height="155.509" fill="#0280CD"/>
<path d="M40.9052 106.429L38.0492 97.861H39.6092L41.7572 104.641H41.7812L43.9772 97.861H45.5012L42.5732 106.429H40.9052ZM50.7049 101.857V105.049C50.7049 105.385 50.7769 105.517 51.0289 105.517H51.1729C51.2329 105.517 51.2929 105.505 51.3649 105.493V106.441C51.1609 106.513 50.7289 106.597 50.5009 106.597C49.9369 106.597 49.5529 106.405 49.4449 105.841C48.9049 106.369 48.0289 106.597 47.2969 106.597C46.1809 106.597 45.1729 105.997 45.1729 104.785C45.1729 103.237 46.4089 102.985 47.5609 102.853C48.5569 102.661 49.4209 102.793 49.4209 101.977C49.4209 101.257 48.6769 101.137 48.1369 101.137C47.3689 101.137 46.8289 101.449 46.7689 102.121H45.4009C45.4969 100.525 46.8409 100.057 48.2209 100.057C49.4329 100.057 50.7049 100.549 50.7049 101.857ZM49.3369 104.341V103.321C48.9169 103.597 48.2689 103.585 47.6569 103.693C47.0689 103.789 46.5409 104.005 46.5409 104.725C46.5409 105.349 47.3209 105.517 47.8009 105.517C48.4009 105.517 49.3369 105.205 49.3369 104.341ZM46.2169 97.657H46.9129C47.0449 98.329 47.5609 98.569 48.1969 98.569C48.8089 98.569 49.2769 98.269 49.4089 97.657H50.0929C49.9609 98.797 49.2049 99.349 48.1009 99.349C46.9969 99.349 46.3129 98.761 46.2169 97.657ZM52.1769 106.429V100.225H53.4729V101.137L53.4969 101.161C53.9169 100.477 54.6129 100.057 55.4289 100.057C56.7849 100.057 57.6249 100.765 57.6249 102.169V106.429H56.2569V102.529C56.2209 101.557 55.8609 101.137 55.0449 101.137C54.1329 101.137 53.5449 101.857 53.5449 102.769V106.429H52.1769ZM62.4434 106.429V97.861H63.8114V101.029H63.8354C64.2194 100.429 64.9754 100.057 65.6834 100.057C67.6394 100.057 68.5874 101.533 68.5874 103.357C68.5874 105.037 67.7354 106.597 65.9114 106.597C65.0714 106.597 64.1714 106.393 63.7634 105.577H63.7394V106.429H62.4434ZM67.2194 103.333C67.2194 102.217 66.6314 101.137 65.5034 101.137C64.3514 101.137 63.7634 102.001 63.7634 103.333C63.7634 104.581 64.3994 105.517 65.5034 105.517C66.7514 105.517 67.2194 104.413 67.2194 103.333ZM74.9393 101.857V105.049C74.9393 105.385 75.0113 105.517 75.2633 105.517H75.4073C75.4673 105.517 75.5273 105.505 75.5993 105.493V106.441C75.3953 106.513 74.9633 106.597 74.7353 106.597C74.1713 106.597 73.7873 106.405 73.6793 105.841C73.1393 106.369 72.2633 106.597 71.5313 106.597C70.4153 106.597 69.4073 105.997 69.4073 104.785C69.4073 103.237 70.6433 102.985 71.7953 102.853C72.7913 102.661 73.6553 102.793 73.6553 101.977C73.6553 101.257 72.9113 101.137 72.3713 101.137C71.6033 101.137 71.0633 101.449 71.0033 102.121H69.6353C69.7313 100.525 71.0753 100.057 72.4553 100.057C73.6673 100.057 74.9393 100.549 74.9393 101.857ZM73.5713 104.341V103.321C73.1513 103.597 72.5033 103.585 71.8913 103.693C71.3033 103.789 70.7753 104.005 70.7753 104.725C70.7753 105.349 71.5553 105.517 72.0353 105.517C72.6353 105.517 73.5713 105.205 73.5713 104.341ZM71.7473 97.597L71.7233 97.009C71.9393 96.985 72.1193 96.973 72.2753 96.973C72.7673 96.973 73.5233 97.201 73.5233 97.969C73.5233 98.305 73.3553 98.665 72.6953 98.809L72.6713 99.073H72.0113V98.557C72.6233 98.509 72.7673 98.257 72.7673 98.053C72.7673 97.681 72.5993 97.549 72.1673 97.549C72.0113 97.549 71.8793 97.561 71.7473 97.597ZM76.4113 106.429V100.225H77.7073V101.137L77.7313 101.161C78.1513 100.477 78.8473 100.057 79.6633 100.057C81.0193 100.057 81.8593 100.765 81.8593 102.169V106.429H80.4913V102.529C80.4553 101.557 80.0953 101.137 79.2793 101.137C78.3673 101.137 77.7793 101.857 77.7793 102.769V106.429H76.4113ZM92.1977 102.301H90.8297C90.7217 101.533 90.1817 101.137 89.4137 101.137C88.7057 101.137 87.7097 101.521 87.7097 103.393C87.7097 104.425 88.1657 105.517 89.3537 105.517C90.1577 105.517 90.6977 105.001 90.8297 104.101H92.1977C91.9457 105.721 90.9497 106.597 89.3537 106.597C87.4097 106.597 86.3417 105.217 86.3417 103.393C86.3417 101.521 87.3617 100.057 89.4017 100.057C90.8417 100.057 92.0657 100.777 92.1977 102.301ZM93.3097 106.429V97.861H94.6777V101.041H94.7017C95.0377 100.477 95.7457 100.057 96.5617 100.057C97.9177 100.057 98.7577 100.765 98.7577 102.169V106.429H97.3897V102.529C97.3537 101.557 96.9937 101.137 96.1777 101.137C95.2657 101.137 94.6777 101.857 94.6777 102.769V106.429H93.3097ZM101.604 106.429H100.236V100.225H101.604V106.429ZM100.236 99.361L101.316 97.645H102.936L101.232 99.361H100.236ZM103.095 106.429V100.225H104.391V101.137L104.415 101.161C104.835 100.477 105.531 100.057 106.347 100.057C107.703 100.057 108.543 100.765 108.543 102.169V106.429H107.175V102.529C107.139 101.557 106.779 101.137 105.963 101.137C105.051 101.137 104.463 101.857 104.463 102.769V106.429H103.095ZM109.985 106.429V97.861H111.353V101.041H111.377C111.713 100.477 112.421 100.057 113.237 100.057C114.593 100.057 115.433 100.765 115.433 102.169V106.429H114.065V102.529C114.029 101.557 113.669 101.137 112.853 101.137C111.941 101.137 111.353 101.857 111.353 102.769V106.429H109.985ZM51.8467 119.437H53.2147C53.2987 120.241 53.8867 120.517 54.6187 120.517C55.1467 120.517 56.0347 120.409 55.9987 119.701C55.9627 118.981 54.9667 118.897 53.9707 118.669C52.9627 118.453 51.9787 118.093 51.9787 116.833C51.9787 115.477 53.4427 115.057 54.5707 115.057C55.8427 115.057 57.0067 115.573 57.1627 116.965H55.7347C55.6027 116.305 55.0867 116.137 54.4747 116.137C54.0787 116.137 53.3467 116.233 53.3467 116.773C53.3467 117.445 54.3547 117.553 55.3627 117.769C56.3587 117.997 57.3667 118.357 57.3667 119.581C57.3667 121.057 55.8787 121.597 54.5947 121.597C53.0227 121.597 51.8827 120.901 51.8467 119.437ZM63.6014 116.857V120.049C63.6014 120.385 63.6734 120.517 63.9254 120.517H64.0694C64.1294 120.517 64.1894 120.505 64.2614 120.493V121.441C64.0574 121.513 63.6254 121.597 63.3974 121.597C62.8334 121.597 62.4494 121.405 62.3414 120.841C61.8014 121.369 60.9254 121.597 60.1934 121.597C59.0774 121.597 58.0694 120.997 58.0694 119.785C58.0694 118.237 59.3054 117.985 60.4574 117.853C61.4534 117.661 62.3174 117.793 62.3174 116.977C62.3174 116.257 61.5734 116.137 61.0334 116.137C60.2654 116.137 59.7254 116.449 59.6654 117.121H58.2974C58.3934 115.525 59.7374 115.057 61.1174 115.057C62.3294 115.057 63.6014 115.549 63.6014 116.857ZM62.2334 119.341V118.321C61.8134 118.597 61.1654 118.585 60.5534 118.693C59.9654 118.789 59.4374 119.005 59.4374 119.725C59.4374 120.349 60.2174 120.517 60.6974 120.517C61.2974 120.517 62.2334 120.205 62.2334 119.341ZM60.3734 114.361L61.4534 112.645H63.0734L61.3694 114.361H60.3734ZM70.6294 117.301H69.2614C69.1534 116.533 68.6134 116.137 67.8454 116.137C67.1374 116.137 66.1414 116.521 66.1414 118.393C66.1414 119.425 66.5974 120.517 67.7854 120.517C68.5894 120.517 69.1294 120.001 69.2614 119.101H70.6294C70.3774 120.721 69.3814 121.597 67.7854 121.597C65.8414 121.597 64.7734 120.217 64.7734 118.393C64.7734 116.521 65.7934 115.057 67.8334 115.057C69.2734 115.057 70.4974 115.777 70.6294 117.301ZM71.7413 121.429V112.861H73.1093V116.041H73.1333C73.4693 115.477 74.1773 115.057 74.9933 115.057C76.3493 115.057 77.1893 115.765 77.1893 117.169V121.429H75.8213V117.529C75.7853 116.557 75.4253 116.137 74.6093 116.137C73.6973 116.137 73.1093 116.857 73.1093 117.769V121.429H71.7413ZM81.9718 121.429V115.225H83.2678V116.089H83.3038C83.7238 115.477 84.2158 115.057 85.2118 115.057C85.9678 115.057 86.6758 115.381 86.9518 116.089C87.4198 115.453 87.9838 115.057 88.8958 115.057C90.2038 115.057 90.9718 115.645 90.9718 117.145V121.429H89.6038V117.805C89.6038 116.809 89.5438 116.137 88.4758 116.137C87.5518 116.137 87.1558 116.737 87.1558 117.793V121.429H85.7878V117.445C85.7878 116.581 85.5238 116.137 84.6958 116.137C83.9878 116.137 83.3398 116.725 83.3398 117.745V121.429H81.9718ZM98.4492 115.333L99.4812 114.745L100.261 116.101L99.3372 116.629C98.9532 116.857 98.5452 117.013 98.1732 117.013C98.3172 117.409 98.3892 117.853 98.3892 118.321C98.3892 120.229 97.2372 121.597 95.2572 121.597C93.2772 121.597 92.1252 120.229 92.1252 118.321C92.1252 116.437 93.2772 115.057 95.2572 115.057C96.4212 115.057 97.3092 115.525 97.8252 116.329C98.1492 116.329 98.4252 116.233 98.8452 116.005L98.4492 115.333ZM95.2572 120.517C96.4812 120.517 97.0212 119.401 97.0212 118.321C97.0212 117.253 96.4812 116.137 95.2572 116.137C94.0332 116.137 93.4932 117.253 93.4932 118.321C93.4932 119.401 94.0332 120.517 95.2572 120.517ZM94.2852 114.361L95.3652 112.645H96.9852L95.2812 114.361H94.2852ZM100.664 114.157V112.861H102.032V114.157H100.664ZM100.664 121.429V115.225H102.032V121.429H100.664Z" fill="#FFFDFD"/>
<path fill-rule="evenodd" clip-rule="evenodd" d="M65.0541 23.0822C64.5435 23.265 64.1527 23.7157 64.0428 24.2484C64.0051 24.4311 63.9923 27.057 64.002 32.5895L64.0161 40.664L64.161 40.9689C64.3181 41.2996 64.5438 41.5339 64.8872 41.7229C65.0676 41.8222 65.1892 41.8437 65.5737 41.844C65.9949 41.8443 66.0683 41.8287 66.319 41.6852C66.6272 41.5088 66.8374 41.2735 67.014 40.9071L67.1312 40.664L67.1453 33.4344L67.1594 26.2048L81.1632 26.2183L95.167 26.2319L95.18 40.5165L95.1931 54.8011H92.0071C90.1258 54.8011 88.7104 54.8228 88.5507 54.8541C88.0281 54.9565 87.6403 55.2483 87.3944 55.7244L87.2754 55.9546L87.2495 59.7907L87.2235 63.6267L85.1208 63.6536C83.2212 63.6778 83.0015 63.6897 82.8463 63.7773C82.5629 63.9372 82.2657 64.247 82.1192 64.5354C82.0015 64.7671 81.9811 64.8742 81.9805 65.2631C81.9799 65.6684 81.9968 65.7509 82.1327 66.0045C82.3035 66.3231 82.5241 66.5443 82.8509 66.7248L83.0701 66.8458L86.1592 66.8628C88.2446 66.8742 89.3328 66.8608 89.5085 66.8215C89.6517 66.7895 89.8643 66.6974 89.981 66.6168C90.3283 66.377 97.9848 58.0379 98.1448 57.7251L98.282 57.4568V40.7982V24.1395L98.1649 23.913C97.9903 23.5753 97.7763 23.3474 97.4679 23.1709L97.1918 23.0128L81.2529 23.0009C66.2426 22.9898 65.2989 22.9946 65.0541 23.0822ZM70.2982 31.2413C69.7977 31.4776 69.5264 32.0238 69.6376 32.5716C69.708 32.9186 69.882 33.1779 70.1818 33.383L70.3945 33.5284L80.9822 33.5424C88.5728 33.5524 91.6307 33.5395 91.7849 33.4971C92.0734 33.4177 92.4658 33.0009 92.5478 32.6866C92.6933 32.1293 92.4571 31.5483 91.9802 31.2908L91.7026 31.1409L81.1042 31.1421C70.9521 31.1433 70.4972 31.1474 70.2982 31.2413ZM70.4768 38.0812C70.1538 38.1717 69.9362 38.3435 69.7663 38.6422C69.6489 38.8484 69.6236 38.9561 69.6252 39.2423C69.6281 39.761 69.8291 40.105 70.2723 40.3493C70.4479 40.4461 70.8062 40.4494 81.0972 40.4494H91.7404L91.9694 40.3153C92.7985 39.8296 92.7871 38.614 91.9494 38.1715L91.6913 38.0351L81.2024 38.025C73.0112 38.0171 70.6617 38.0294 70.4768 38.0812ZM67.8452 42.6797C65.1455 42.9495 63.1953 44.4971 62.5563 46.8768C62.3727 47.5606 62.3282 48.7514 62.4565 49.5503C62.6346 50.6599 62.9978 51.6163 63.7566 52.974C64.5117 54.3251 64.7429 55.0784 64.7089 56.0775C64.6932 56.5387 64.671 56.6434 64.5235 56.9528C64.4209 57.1678 64.2193 57.4502 64.0043 57.68C62.9003 58.8597 61.0302 59.8307 58.1301 60.73C57.9767 60.7776 57.7817 60.8694 57.6967 60.934C57.495 61.0874 57.307 61.423 57.2628 61.7087L57.2275 61.9367H68.7081H80.1886V61.7603C80.1886 61.5169 79.992 61.1418 79.768 60.9578C79.6398 60.8524 79.3465 60.7325 78.8335 60.5757C77.7288 60.2382 77.0009 59.9452 75.9573 59.4181C74.7864 58.8267 74.1677 58.4038 73.5574 57.7781C73.1885 57.3998 73.0394 57.2016 72.9084 56.9158C72.7459 56.5614 72.7385 56.5172 72.7419 55.9278C72.7476 54.9223 72.9423 54.3307 73.7447 52.8806C74.3115 51.8564 74.6388 51.0744 74.8438 50.2549C75.4105 47.9899 74.9408 45.8945 73.5427 44.4498C72.2442 43.1079 70.1308 42.4513 67.8452 42.6797ZM79.7503 44.9963C79.4592 45.0758 79.0865 45.4748 78.9979 45.8021C78.8601 46.3106 79.0609 46.8881 79.4738 47.1704L79.6878 47.3168H85.7698H91.8518L92.0658 47.1704C92.4786 46.8881 92.6795 46.3106 92.5417 45.8021C92.4538 45.4776 92.0889 45.0878 91.7863 44.9949C91.5056 44.9087 80.066 44.9101 79.7503 44.9963ZM57.2523 66.7025L57.2668 69.0541L57.4233 69.3157C57.5374 69.5063 57.6554 69.6181 57.8586 69.7277L58.1371 69.8781L68.7903 69.8642L79.4434 69.8503L79.6598 69.7022C79.7788 69.6208 79.9406 69.4537 80.0194 69.3307L80.1626 69.1071L80.1772 66.729L80.1917 64.351H68.7147H57.2377L57.2523 66.7025Z" fill="#FFFDFD"/>
</svg>
