<svg width="156" height="155" viewBox="0 0 156 155" fill="none" xmlns="http://www.w3.org/2000/svg">
<rect x="0.123047" width="155.509" height="154.265" fill="#0280CD"/>
<path d="M18.6788 108.014V99.4462H20.7908L23.1548 106.154H23.1788L25.4828 99.4462H27.5708V108.014H26.1428V101.402H26.1188L23.7428 108.014H22.5068L20.1308 101.402H20.1068V108.014H18.6788ZM34.3708 103.442V106.634C34.3708 106.97 34.4428 107.102 34.6948 107.102H34.8388C34.8988 107.102 34.9588 107.09 35.0308 107.078V108.026C34.8268 108.098 34.3948 108.182 34.1668 108.182C33.6028 108.182 33.2188 107.99 33.1108 107.426C32.5708 107.954 31.6948 108.182 30.9628 108.182C29.8468 108.182 28.8388 107.582 28.8388 106.37C28.8388 104.822 30.0748 104.57 31.2268 104.438C32.2228 104.246 33.0868 104.378 33.0868 103.562C33.0868 102.842 32.3428 102.722 31.8028 102.722C31.0348 102.722 30.4948 103.034 30.4348 103.706H29.0668C29.1628 102.11 30.5068 101.642 31.8868 101.642C33.0988 101.642 34.3708 102.134 34.3708 103.442ZM33.0028 105.926V104.906C32.5828 105.182 31.9348 105.17 31.3228 105.278C30.7348 105.374 30.2068 105.59 30.2068 106.31C30.2068 106.934 30.9868 107.102 31.4668 107.102C32.0668 107.102 33.0028 106.79 33.0028 105.926ZM32.6188 110.066H31.2508V108.77H32.6188V110.066ZM35.8428 108.014V101.81H37.1388V102.722L37.1628 102.746C37.5828 102.062 38.2788 101.642 39.0948 101.642C40.4508 101.642 41.2908 102.35 41.2908 103.754V108.014H39.9228V104.114C39.8868 103.142 39.5268 102.722 38.7108 102.722C37.7988 102.722 37.2108 103.442 37.2108 104.354V108.014H35.8428ZM48.4694 101.81V107.69C48.4694 109.562 47.3894 110.474 45.4214 110.474C44.1734 110.474 42.7814 109.994 42.6494 108.542H44.0174C44.1854 109.322 44.8094 109.454 45.5054 109.454C46.6094 109.454 47.1014 108.89 47.1014 107.87V106.922H47.0774C46.6934 107.606 45.9854 108.014 45.2174 108.014C43.2494 108.014 42.4334 106.526 42.4334 104.75C42.4334 103.082 43.4774 101.642 45.2414 101.642C46.0214 101.642 46.7294 101.954 47.0774 102.662H47.1014V101.81H48.4694ZM45.4334 106.934C46.6454 106.934 47.1014 105.842 47.1014 104.774C47.1014 103.706 46.6214 102.722 45.4334 102.722C44.2214 102.722 43.8014 103.85 43.8014 104.882C43.8014 105.89 44.2934 106.934 45.4334 106.934ZM53.2226 108.014V99.4462H54.5906V108.014H53.2226ZM62.0331 101.918L63.0651 101.33L63.8451 102.686L62.9211 103.214C62.5371 103.442 62.1291 103.598 61.7571 103.598C61.6731 103.598 61.6131 103.586 61.5291 103.574V108.014H60.1851V107.15H60.1611C59.8251 107.774 59.0811 108.182 58.3971 108.182C56.7651 108.182 56.0811 107.378 56.0811 105.746V101.81H57.4491V105.614C57.4491 106.706 57.8811 107.102 58.6371 107.102C59.7771 107.102 60.1611 106.37 60.1611 105.41V101.81H61.5291V102.914C61.7571 102.914 62.0331 102.818 62.4291 102.59L62.0331 101.918ZM70.2499 101.918L71.2819 101.33L72.0619 102.686L71.1379 103.214C70.7539 103.442 70.3459 103.598 69.9739 103.598C70.1179 103.994 70.1899 104.438 70.1899 104.906C70.1899 106.814 69.0379 108.182 67.0579 108.182C65.0779 108.182 63.9259 106.814 63.9259 104.906C63.9259 103.022 65.0779 101.642 67.0579 101.642C68.2219 101.642 69.1099 102.11 69.6259 102.914C69.9499 102.914 70.2259 102.818 70.6459 102.59L70.2499 101.918ZM67.0579 107.102C68.2819 107.102 68.8219 105.986 68.8219 104.906C68.8219 103.838 68.2819 102.722 67.0579 102.722C65.8339 102.722 65.2939 103.838 65.2939 104.906C65.2939 105.986 65.8339 107.102 67.0579 107.102ZM66.0859 100.946L67.1659 99.2302H68.7859L67.0819 100.946H66.0859ZM72.4647 100.742V99.4462H73.8327V100.742H72.4647ZM72.4647 108.014V101.81H73.8327V108.014H72.4647ZM78.0391 102.83V101.81H79.0711V99.9502H80.4391V101.81H81.6751V102.83H80.4391V106.142C80.4391 106.706 80.4871 106.994 81.0991 106.994C81.2911 106.994 81.4831 106.994 81.6751 106.946V108.002C81.3751 108.038 81.0871 108.074 80.7871 108.074C79.3471 108.074 79.1071 107.522 79.0711 106.49V102.83H78.0391ZM88.6112 101.918L89.6432 101.33L90.4232 102.686L89.4992 103.214C89.1152 103.442 88.7072 103.598 88.3352 103.598C88.2512 103.598 88.1912 103.586 88.1072 103.574V108.014H86.7632V107.15H86.7392C86.4032 107.774 85.6592 108.182 84.9752 108.182C83.3432 108.182 82.6592 107.378 82.6592 105.746V101.81H84.0272V105.614C84.0272 106.706 84.4592 107.102 85.2152 107.102C86.3552 107.102 86.7392 106.37 86.7392 105.41V101.81H88.1072V102.914C88.3352 102.914 88.6112 102.818 89.0072 102.59L88.6112 101.918ZM95.7759 108.014L93.5199 101.81H95.0079L96.5799 106.574H96.6039L98.1159 101.81H99.5319L97.3119 108.014H95.7759ZM105.551 103.442V106.634C105.551 106.97 105.623 107.102 105.875 107.102H106.019C106.079 107.102 106.139 107.09 106.211 107.078V108.026C106.007 108.098 105.575 108.182 105.347 108.182C104.783 108.182 104.399 107.99 104.291 107.426C103.751 107.954 102.875 108.182 102.143 108.182C101.027 108.182 100.019 107.582 100.019 106.37C100.019 104.822 101.255 104.57 102.407 104.438C103.403 104.246 104.267 104.378 104.267 103.562C104.267 102.842 103.523 102.722 102.983 102.722C102.215 102.722 101.675 103.034 101.615 103.706H100.247C100.343 102.11 101.687 101.642 103.067 101.642C104.279 101.642 105.551 102.134 105.551 103.442ZM104.183 105.926V104.906C103.763 105.182 103.115 105.17 102.503 105.278C101.915 105.374 101.387 105.59 101.387 106.31C101.387 106.934 102.167 107.102 102.647 107.102C103.247 107.102 104.183 106.79 104.183 105.926ZM103.103 99.9502L102.263 101.03H101.159L102.443 99.3142H103.775L105.071 101.03H103.955L103.103 99.9502ZM104.171 100.046L105.251 98.3302H106.871L105.167 100.046H104.171ZM107.022 108.014V101.81H108.318V102.722L108.342 102.746C108.762 102.062 109.458 101.642 110.274 101.642C111.63 101.642 112.47 102.35 112.47 103.754V108.014H111.102V104.114C111.066 103.142 110.706 102.722 109.89 102.722C108.978 102.722 108.39 103.442 108.39 104.354V108.014H107.022ZM118.897 108.014L116.641 101.81H118.129L119.701 106.574H119.725L121.237 101.81H122.653L120.433 108.014H118.897ZM123.512 100.742V99.4462H124.88V100.742H123.512ZM123.512 108.014V101.81H124.88V108.014H123.512ZM127.438 104.366H130.63C130.57 103.502 130.006 102.722 129.07 102.722C128.122 102.722 127.474 103.442 127.438 104.366ZM131.998 105.266H127.438C127.438 106.238 127.966 107.102 129.106 107.102C129.91 107.102 130.378 106.754 130.618 106.07H131.914C131.626 107.426 130.45 108.182 129.106 108.182C127.15 108.182 126.07 106.838 126.07 104.918C126.07 103.154 127.222 101.642 129.07 101.642C131.026 101.642 132.226 103.406 131.998 105.266ZM129.082 99.8662L128.242 100.946H127.138L128.422 99.2302H129.754L131.05 100.946H129.934L129.082 99.8662ZM133.038 108.014V101.81H134.334V102.722L134.358 102.746C134.778 102.062 135.474 101.642 136.29 101.642C137.646 101.642 138.486 102.35 138.486 103.754V108.014H137.118V104.114C137.082 103.142 136.722 102.722 135.906 102.722C134.994 102.722 134.406 103.442 134.406 104.354V108.014H133.038ZM52.5641 115.67V118.034H55.0121C55.7321 118.034 56.2721 117.614 56.2721 116.846C56.2721 115.982 55.8281 115.67 55.0121 115.67H52.5641ZM51.0641 123.014V114.446H55.2281C56.7641 114.446 57.7721 115.142 57.7721 116.57C57.7721 117.434 57.3281 118.058 56.5481 118.394V118.418C57.6041 118.646 58.1561 119.462 58.1561 120.626C58.1561 121.97 57.2201 123.014 55.0001 123.014H51.0641ZM52.5641 119.114V121.79H55.2161C56.1281 121.79 56.6561 121.298 56.6561 120.434C56.6561 119.582 56.1281 119.114 55.2161 119.114H52.5641ZM62.1653 123.182C60.1853 123.182 59.0333 121.814 59.0333 119.906C59.0333 118.022 60.1853 116.642 62.1653 116.642C64.1453 116.642 65.2973 118.022 65.2973 119.906C65.2973 121.814 64.1453 123.182 62.1653 123.182ZM62.1653 122.102C63.3893 122.102 63.9293 120.986 63.9293 119.906C63.9293 118.838 63.3893 117.722 62.1653 117.722C60.9413 117.722 60.4013 118.838 60.4013 119.906C60.4013 120.986 60.9413 122.102 62.1653 122.102ZM62.1533 114.95L61.3133 116.03H60.2093L61.4933 114.314H62.8253L64.1213 116.03H63.0053L62.1533 114.95ZM62.8493 125.066H61.4813V123.77H62.8493V125.066ZM66.5426 123.014V121.394H68.2106V123.014C68.1986 124.01 67.5506 124.718 66.5906 124.91V124.178C67.1186 124.046 67.3826 123.53 67.3706 123.014H66.5426ZM73.1143 123.014V116.81H74.4103V117.722L74.4343 117.746C74.8543 117.062 75.5503 116.642 76.3663 116.642C77.7223 116.642 78.5623 117.35 78.5623 118.754V123.014H77.1943V119.114C77.1583 118.142 76.7983 117.722 75.9823 117.722C75.0703 117.722 74.4823 118.442 74.4823 119.354V123.014H73.1143ZM85.7409 116.81V122.69C85.7409 124.562 84.6609 125.474 82.6929 125.474C81.4449 125.474 80.0529 124.994 79.9209 123.542H81.2889C81.4569 124.322 82.0809 124.454 82.7769 124.454C83.8809 124.454 84.3729 123.89 84.3729 122.87V121.922H84.3489C83.9649 122.606 83.2569 123.014 82.4889 123.014C80.5209 123.014 79.7049 121.526 79.7049 119.75C79.7049 118.082 80.7489 116.642 82.5129 116.642C83.2929 116.642 84.0009 116.954 84.3489 117.662H84.3729V116.81H85.7409ZM82.7049 121.934C83.9169 121.934 84.3729 120.842 84.3729 119.774C84.3729 118.706 83.8929 117.722 82.7049 117.722C81.4929 117.722 81.0729 118.85 81.0729 119.882C81.0729 120.89 81.5649 121.934 82.7049 121.934ZM92.3142 118.442V121.634C92.3142 121.97 92.3862 122.102 92.6382 122.102H92.7822C92.8422 122.102 92.9022 122.09 92.9742 122.078V123.026C92.7702 123.098 92.3382 123.182 92.1102 123.182C91.5462 123.182 91.1622 122.99 91.0542 122.426C90.5142 122.954 89.6382 123.182 88.9062 123.182C87.7902 123.182 86.7822 122.582 86.7822 121.37C86.7822 119.822 88.0182 119.57 89.1702 119.438C90.1662 119.246 91.0302 119.378 91.0302 118.562C91.0302 117.842 90.2862 117.722 89.7462 117.722C88.9782 117.722 88.4382 118.034 88.3782 118.706H87.0102C87.1062 117.11 88.4502 116.642 89.8302 116.642C91.0422 116.642 92.3142 117.134 92.3142 118.442ZM90.9462 120.926V119.906C90.5262 120.182 89.8782 120.17 89.2662 120.278C88.6782 120.374 88.1502 120.59 88.1502 121.31C88.1502 121.934 88.9302 122.102 89.4102 122.102C90.0102 122.102 90.9462 121.79 90.9462 120.926ZM87.9462 114.23H89.5542L90.6462 115.946H89.6502L87.9462 114.23ZM93.7862 123.014V116.81H95.0822V117.722L95.1062 117.746C95.5262 117.062 96.2222 116.642 97.0382 116.642C98.3942 116.642 99.2342 117.35 99.2342 118.754V123.014H97.8662V119.114C97.8302 118.142 97.4702 117.722 96.6542 117.722C95.7422 117.722 95.1542 118.442 95.1542 119.354V123.014H93.7862ZM100.677 123.014V114.446H102.045V117.626H102.069C102.405 117.062 103.113 116.642 103.929 116.642C105.285 116.642 106.125 117.35 106.125 118.754V123.014H104.757V119.114C104.721 118.142 104.361 117.722 103.545 117.722C102.633 117.722 102.045 118.442 102.045 119.354V123.014H100.677Z" fill="#FFFDFD"/>
<path fill-rule="evenodd" clip-rule="evenodd" d="M100.43 18.6139C101.448 18.125 101.998 17.9674 103.04 17.8656C106.651 17.5128 109.98 19.4704 111.277 22.7104C111.76 23.9167 111.838 24.3311 111.841 25.7277C111.845 27.2598 111.637 28.1268 110.956 29.4188C110.053 31.1292 108.312 32.6009 106.465 33.2151C105.36 33.5828 103.523 33.7095 102.413 33.4947C99.4775 32.927 97.1433 30.8096 96.2275 27.8841C95.8644 26.7241 95.8644 24.7294 96.2275 23.576C96.9548 21.2657 98.3576 19.6092 100.43 18.6139ZM105.025 24.9064C106.286 24.1803 106.271 22.2032 104.998 21.4639C103.558 20.627 101.858 21.5637 101.858 23.194C101.858 24.1447 102.404 24.8747 103.346 25.1823C103.86 25.35 104.411 25.2594 105.025 24.9064ZM107.511 28.1884C107.026 27.0181 106.169 26.2523 104.95 25.899C104.194 25.6798 103.522 25.6899 102.758 25.9322C101.581 26.3058 100.784 27.041 100.304 28.1989C100.15 28.57 100.008 28.8015 100.071 28.9456C100.189 29.2177 101.037 29.1779 103.91 29.1779C106.778 29.1779 107.628 29.2183 107.747 28.945C107.811 28.7996 107.667 28.5651 107.511 28.1884ZM71.2818 35.2331C72.9943 34.1028 74.793 33.3693 76.7701 32.9948C78.0955 32.7438 80.5781 32.7187 81.9696 32.9425C83.2609 33.1501 85.064 33.7288 86.1679 34.2897C90.3446 36.4121 93.1663 40.1018 94.1239 44.6928C94.3985 46.0093 94.4037 48.8244 94.134 50.1668C92.9382 56.1196 88.3475 60.72 82.4453 61.88C74.4034 63.4606 66.7034 58.3847 64.9599 50.3533C64.6801 49.0644 64.674 45.9309 64.9487 44.6389C65.7791 40.7347 68.0453 37.3689 71.2818 35.2331ZM81.1413 46.2378C84.1322 44.8478 84.0896 40.6574 81.0706 39.291C79.1896 38.4397 76.9832 39.2658 76.0373 41.1756C75.777 41.701 75.7371 41.9109 75.7371 42.7521C75.7371 43.5753 75.7806 43.8144 76.0236 44.3284C76.4116 45.1487 76.9585 45.7207 77.7741 46.1592C78.4132 46.5029 78.5202 46.5257 79.4888 46.5257C80.3811 46.5257 80.6062 46.4865 81.1413 46.2378ZM84.5442 49.5447C83.7273 48.7649 82.9309 48.2767 81.8632 47.9009C81.2016 47.6682 80.8337 47.6143 79.7063 47.5847C78.1198 47.5432 77.2514 47.7457 75.9542 48.4593C75.0625 48.9499 73.8389 50.1364 73.3098 51.0235C72.9209 51.6755 72.4821 52.854 72.3852 53.507L72.3253 53.9113H79.5096H86.694L86.6183 53.3455C86.4479 52.0723 85.6385 50.5891 84.5442 49.5447ZM95.1746 66.6128C96.006 64.2769 98.143 62.3967 100.517 61.9122C101.448 61.7223 103.091 61.7695 103.984 62.012C105.428 62.4043 106.939 63.4118 107.818 64.5676C110.378 67.9338 109.585 72.6624 106.069 74.9938C101.901 77.7579 96.1098 75.4847 94.9628 70.6343C94.7007 69.526 94.7985 67.6698 95.1746 66.6128ZM103.827 65.9889C103.662 65.5573 103.304 65.203 102.801 64.9727C102.286 64.737 101.969 64.7264 101.404 64.9262C99.4352 65.6222 99.9542 68.5426 102.047 68.5426C103.364 68.5426 104.293 67.2097 103.827 65.9889ZM45.3797 36.7212C46.1315 34.6008 47.9701 32.9478 50.1731 32.412C50.9788 32.2159 52.5746 32.2157 53.4116 32.4114C55.2357 32.8377 56.9985 34.2492 57.8408 35.9578C58.4266 37.1462 58.5832 37.9211 58.5183 39.3107C58.4558 40.6523 58.1961 41.4895 57.5088 42.5665C57.0108 43.3468 56.7016 43.6795 55.9079 44.289C54.4036 45.4444 52.3927 45.9268 50.5537 45.5734C46.4746 44.7898 44.0127 40.5776 45.3797 36.7212ZM53.517 36.642C53.4633 36.0877 53.2321 35.6915 52.7572 35.3399C52.3341 35.0267 51.5208 34.9903 50.9887 35.2608C49.5267 36.0038 49.779 38.0774 51.3835 38.5058C52.5502 38.8173 53.6359 37.8688 53.517 36.642ZM105.523 71.8118C105.332 70.8011 104.447 69.7222 103.453 69.2859C102.819 69.0079 101.737 68.9318 101.146 69.1235C99.7753 69.5686 98.8358 70.5627 98.5621 71.858L98.4881 72.2084H102.043H105.598L105.523 71.8118ZM55.0153 41.553C54.8372 40.6117 54.1124 39.7264 53.1729 39.3026C52.1473 38.8398 51.0516 38.8821 50.1259 39.42C49.2794 39.9119 48.5501 40.9429 48.5443 41.6557L48.5419 41.9522H51.8163H55.0909L55.0153 41.553Z" fill="#FFFDFD"/>
<path d="M71.6061 50.0563L71.4247 50.7677L56.5227 46.9673L56.7041 46.2559L71.6061 50.0563Z" fill="#FFFDFD"/>
<path d="M88.0794 64.3342L88.5672 63.7855L98.3868 72.517L97.8989 73.0657L88.0794 64.3342Z" fill="#FFFDFD"/>
<path d="M89.2205 46.5871L88.6788 46.0916L99.3157 34.4651L99.8574 34.9607L89.2205 46.5871Z" fill="#FFFDFD"/>
</svg>
