<svg width="155" height="154" viewBox="0 0 155 154" fill="none" xmlns="http://www.w3.org/2000/svg">
<rect width="155" height="154" fill="#0280CD"/>
<path fill-rule="evenodd" clip-rule="evenodd" d="M58.6381 19.6955C56.8552 20.0126 55.2186 20.8454 53.9391 22.0868C52.5795 23.406 51.6753 25.2504 51.3725 27.3222C51.2151 28.3998 51.2617 30.7078 51.4592 31.6083C51.844 33.3634 52.5374 34.7507 53.6564 36.0045L54.0198 36.4115L53.6371 36.8008C52.8529 37.5988 52.0494 39.0227 51.6814 40.2667C51.2876 41.5983 51.1439 43.7536 51.3468 45.2829C51.6076 47.2479 52.5278 49.2599 53.7075 50.445L54.0393 50.7784L53.5994 51.2528C52.7094 52.2124 52.0175 53.4814 51.6402 54.8456C51.0767 56.8836 51.1272 59.5258 51.7682 61.5366C52.7639 64.6601 55.2854 66.8322 58.6801 67.4904C59.1509 67.5817 63.4982 67.6042 80.6143 67.6042H101.961L102.44 67.358C103.478 66.8238 103.976 65.6402 103.652 64.4748C103.479 63.8512 103.044 63.3266 102.441 63.0167L101.961 62.7696L80.5304 62.7249C62.9443 62.6881 59.0393 62.659 58.764 62.5625C56.754 61.8579 55.7754 60.1772 55.8945 57.634C55.9957 55.4727 56.79 54.2366 58.5719 53.4676L59.0156 53.2762L80.4885 53.2322L101.961 53.1883L102.441 52.9412C104.263 52.0037 104.152 49.2837 102.26 48.51C101.898 48.362 100.729 48.3513 80.4465 48.3097L59.0156 48.2658L58.5123 48.0555C57.7753 47.7476 57.1575 47.2886 56.7957 46.78C56.1444 45.8646 55.9575 45.2679 55.8982 43.9146C55.8223 42.182 56.2027 40.9301 57.0641 40.0773C57.9709 39.1795 58.9475 38.8163 60.455 38.8163H61.3223V42.5594C61.3223 44.6182 61.3528 46.2895 61.3901 46.2733C61.4275 46.2572 62.0021 45.5913 62.6671 44.7936C63.332 43.9959 63.8963 43.3235 63.9211 43.2993C63.9458 43.2751 64.2465 42.9191 64.5893 42.5082C64.9321 42.0972 65.2423 41.761 65.2786 41.761C65.3148 41.761 66.2771 42.7697 67.417 44.0025C68.5569 45.2353 69.5202 46.2572 69.5579 46.2733C69.5954 46.2895 69.6262 44.6182 69.6262 42.5594V38.8163H85.6737C103.892 38.8163 102.284 38.885 103.059 38.0734C103.404 37.7113 103.533 37.4964 103.643 37.0994C103.992 35.8421 103.38 34.543 102.228 34.0982C102.028 34.0207 97.9478 33.9933 85.7938 33.9883L69.6262 33.9817V32.1804V30.3792L83.5865 30.3565L97.5468 30.3337L97.8058 30.0737C98.3447 29.5326 98.3257 28.7934 97.7594 28.2724L97.468 28.0043H78.8948H60.3216L60.0302 28.2724C59.6534 28.6191 59.5224 29.0226 59.6391 29.4767C59.7883 30.0577 60.2353 30.3777 60.8973 30.3777H61.3223V32.1797V33.9817L60.5464 33.9802C58.066 33.9752 56.4333 32.7521 55.9915 30.5678C55.7422 29.3354 55.8922 27.6628 56.3374 26.7093C56.8327 25.6482 57.9211 24.7954 59.1199 24.5293C59.603 24.4219 62.7968 24.4031 80.7579 24.4018C101.779 24.4003 101.83 24.3999 102.288 24.2205C103.798 23.6282 104.236 21.5984 103.122 20.3503C102.863 20.0605 102.594 19.8653 102.285 19.7443C101.831 19.5664 101.745 19.5657 80.5482 19.5747C63.7413 19.5818 59.135 19.6073 58.6381 19.6955ZM73.1942 42.4635C72.2585 42.8146 72.1797 44.1819 73.0677 44.6631C73.2774 44.7767 74.8332 44.7936 85.0766 44.7934C96.1147 44.7934 96.8627 44.7838 97.1324 44.6396C97.5512 44.4158 97.7395 44.1009 97.7395 43.6241C97.7395 43.1437 97.55 42.7705 97.1899 42.5421C96.9376 42.382 96.5265 42.3757 85.2276 42.3576C75.306 42.3417 73.4761 42.3578 73.1942 42.4635ZM60.2308 56.9453C59.9312 57.104 59.8233 57.2268 59.6948 57.556C59.5403 57.9521 59.5398 57.9836 59.6797 58.368C59.7656 58.6035 59.9348 58.8495 60.0916 58.9667L60.3577 59.1656L78.727 59.1914C91.6541 59.2096 97.1889 59.1892 97.4088 59.1227C98.3054 58.8512 98.4573 57.5216 97.6568 56.9522C97.4413 56.799 96.6648 56.7913 79.0189 56.7695L60.6059 56.7467L60.2308 56.9453Z" fill="#FFFDFD"/>
<path d="M23.5447 91.5988V90.3028H30.4807V91.5988H27.7567V98.8708H26.2567V91.5988H23.5447ZM35.2827 94.2988V97.4908C35.2827 97.6588 35.3067 97.7788 35.3547 97.8508C35.4027 97.9228 35.4867 97.9588 35.6067 97.9588H35.7507C35.7827 97.9588 35.8467 97.9508 35.9427 97.9348V98.8828C35.6467 98.9868 35.3587 99.0388 35.0787 99.0388C34.4707 99.0388 34.1187 98.7868 34.0227 98.2828C33.7667 98.5308 33.4427 98.7188 33.0507 98.8468C32.6587 98.9748 32.2667 99.0388 31.8747 99.0388C31.2747 99.0388 30.7707 98.8828 30.3627 98.5708C29.9547 98.2508 29.7507 97.8028 29.7507 97.2268C29.7507 96.8588 29.8147 96.5508 29.9427 96.3028C30.0787 96.0468 30.2747 95.8548 30.5307 95.7268C30.7867 95.5908 31.0307 95.4948 31.2627 95.4388C31.4947 95.3828 31.7867 95.3348 32.1387 95.2948C32.2827 95.2628 32.4707 95.2348 32.7027 95.2108C32.9347 95.1868 33.1107 95.1628 33.2307 95.1388C33.3587 95.1148 33.4867 95.0788 33.6147 95.0308C33.7507 94.9748 33.8467 94.8988 33.9027 94.8028C33.9667 94.7068 33.9987 94.5788 33.9987 94.4188C33.9987 93.8588 33.5707 93.5788 32.7147 93.5788C32.3147 93.5788 31.9947 93.6628 31.7547 93.8308C31.5147 93.9908 31.3787 94.2348 31.3467 94.5628H29.9787C30.0267 93.8268 30.3107 93.2988 30.8307 92.9788C31.3587 92.6588 32.0147 92.4988 32.7987 92.4988C33.4787 92.4988 34.0627 92.6468 34.5507 92.9428C35.0387 93.2388 35.2827 93.6908 35.2827 94.2988ZM33.9147 96.7828V95.7628C33.7867 95.8428 33.6387 95.9068 33.4707 95.9548C33.3027 95.9948 33.0787 96.0308 32.7987 96.0628C32.5267 96.0948 32.3387 96.1188 32.2347 96.1348C31.8907 96.1908 31.6187 96.2948 31.4187 96.4468C31.2187 96.5988 31.1187 96.8388 31.1187 97.1668C31.1187 97.4468 31.2507 97.6508 31.5147 97.7788C31.7787 97.8988 32.0667 97.9588 32.3787 97.9588C32.7467 97.9588 33.0947 97.8628 33.4227 97.6708C33.7507 97.4708 33.9147 97.1748 33.9147 96.7828ZM30.9147 90.0868H32.5227L33.6147 91.8028H32.6187L30.9147 90.0868ZM36.7907 91.5988V90.3028H38.1587V91.5988H36.7907ZM36.7907 98.8708V92.6668H38.1587V98.8708H36.7907ZM43.025 98.8708V90.3028H44.393V98.8708H43.025ZM45.9196 91.5988V90.3028H47.2876V91.5988H45.9196ZM45.9196 98.8708V92.6668H47.2876V98.8708H45.9196ZM49.8461 95.2228H53.0381C53.0061 94.7668 52.8501 94.3788 52.5701 94.0588C52.2901 93.7388 51.9261 93.5788 51.4781 93.5788C51.0141 93.5788 50.6301 93.7348 50.3261 94.0468C50.0221 94.3588 49.8621 94.7508 49.8461 95.2228ZM54.4061 96.1228H49.8461C49.8461 96.6428 49.9861 97.0788 50.2661 97.4308C50.5541 97.7828 50.9701 97.9588 51.5141 97.9588C52.2821 97.9588 52.7861 97.6148 53.0261 96.9268H54.3221C54.1781 97.5908 53.8461 98.1108 53.3261 98.4868C52.8141 98.8548 52.2101 99.0388 51.5141 99.0388C50.5541 99.0388 49.8061 98.7428 49.2701 98.1508C48.7421 97.5508 48.4781 96.7588 48.4781 95.7748C48.4781 94.8628 48.7541 94.0908 49.3061 93.4588C49.8581 92.8188 50.5821 92.4988 51.4781 92.4988C52.4301 92.4988 53.1861 92.8628 53.7461 93.5908C54.3061 94.3188 54.5261 95.1628 54.4061 96.1228ZM51.4661 90.8068L50.6261 91.8868H49.5221L50.8061 90.1708H52.1381L53.4341 91.8868H52.3181L51.4661 90.8068ZM52.1621 100.923H50.7941V99.6268H52.1621V100.923ZM60.8941 92.6668V98.8708H59.5501V98.0068H59.5261C59.3581 98.3108 59.1061 98.5588 58.7701 98.7508C58.4421 98.9428 58.1061 99.0388 57.7621 99.0388C56.9541 99.0388 56.3661 98.8388 55.9981 98.4388C55.6301 98.0388 55.4461 97.4268 55.4461 96.6028V92.6668H56.8141V96.4708C56.8141 96.9988 56.9141 97.3788 57.1141 97.6108C57.3141 97.8428 57.6101 97.9588 58.0021 97.9588C59.0181 97.9588 59.5261 97.3948 59.5261 96.2668V92.6668H60.8941ZM65.6765 98.8708V90.3028H67.0445V93.4828H67.0685C67.2445 93.1948 67.4965 92.9588 67.8245 92.7748C68.1605 92.5908 68.5285 92.4988 68.9285 92.4988C69.6165 92.4988 70.1525 92.6788 70.5365 93.0388C70.9285 93.3988 71.1245 93.9228 71.1245 94.6108V98.8708H69.7565V94.9708C69.7405 94.4828 69.6365 94.1308 69.4445 93.9148C69.2525 93.6908 68.9525 93.5788 68.5445 93.5788C68.0965 93.5788 67.7325 93.7348 67.4525 94.0468C67.1805 94.3588 67.0445 94.7468 67.0445 95.2108V98.8708H65.6765ZM77.7032 98.1388C77.1432 98.7388 76.3792 99.0388 75.4112 99.0388C74.4432 99.0388 73.6792 98.7388 73.1192 98.1388C72.5592 97.5308 72.2792 96.7388 72.2792 95.7628C72.2792 94.8028 72.5592 94.0188 73.1192 93.4108C73.6792 92.8028 74.4432 92.4988 75.4112 92.4988C76.3792 92.4988 77.1432 92.8028 77.7032 93.4108C78.2632 94.0188 78.5432 94.8028 78.5432 95.7628C78.5432 96.7388 78.2632 97.5308 77.7032 98.1388ZM74.0912 97.3108C74.3952 97.7428 74.8352 97.9588 75.4112 97.9588C75.9872 97.9588 76.4232 97.7428 76.7192 97.3108C77.0232 96.8788 77.1752 96.3628 77.1752 95.7628C77.1752 95.1708 77.0232 94.6588 76.7192 94.2268C76.4232 93.7948 75.9872 93.5788 75.4112 93.5788C74.8352 93.5788 74.3952 93.7948 74.0912 94.2268C73.7952 94.6588 73.6472 95.1708 73.6472 95.7628C73.6472 96.3628 73.7952 96.8788 74.0912 97.3108ZM75.3992 90.8068L74.5592 91.8868H73.4552L74.7392 90.1708H76.0712L77.3672 91.8868H76.2512L75.3992 90.8068ZM76.8632 88.1548H77.5352C77.4632 88.5948 77.3312 88.9188 77.1392 89.1268C76.9152 89.3988 76.6032 89.5348 76.2032 89.5348C75.9552 89.5348 75.6592 89.4588 75.3152 89.3068C74.9712 89.1628 74.6992 89.0908 74.4992 89.0908C74.2192 89.0908 74.0472 89.2548 73.9832 89.5828H73.2992C73.3552 89.2308 73.4912 88.9188 73.7072 88.6468C73.9312 88.3668 74.2112 88.2268 74.5472 88.2268C74.8112 88.2268 75.1352 88.3068 75.5192 88.4668C75.8552 88.6108 76.1032 88.6828 76.2632 88.6828C76.5752 88.6828 76.7752 88.5068 76.8632 88.1548ZM82.3963 93.6868V92.6668H83.4283V90.8068H84.7963V92.6668H86.0323V93.6868H84.7963V96.9988C84.7963 97.3188 84.8323 97.5428 84.9043 97.6708C84.9843 97.7908 85.1683 97.8508 85.4563 97.8508C85.7123 97.8508 85.9043 97.8348 86.0323 97.8028V98.8588C85.6323 98.9068 85.3363 98.9308 85.1443 98.9308C84.4723 98.9308 84.0203 98.8108 83.7883 98.5708C83.5643 98.3228 83.4443 97.9148 83.4283 97.3468V93.6868H82.3963ZM87.0164 98.8708V92.6668H88.3004V93.8668H88.3244C88.4044 93.5228 88.6244 93.2108 88.9844 92.9308C89.3524 92.6428 89.7364 92.4988 90.1364 92.4988C90.2164 92.4988 90.3884 92.5108 90.6524 92.5348V93.8548C90.4364 93.8148 90.2404 93.7948 90.0644 93.7948C89.5844 93.7948 89.1844 93.9828 88.8644 94.3588C88.5444 94.7348 88.3844 95.2548 88.3844 95.9188V98.8708H87.0164ZM97.2711 92.7748L98.3031 92.1868L99.0831 93.5428L98.1591 94.0708C97.7271 94.3268 97.3391 94.4548 96.9951 94.4548C97.1391 94.8548 97.2111 95.2908 97.2111 95.7628C97.2111 96.7388 96.9311 97.5308 96.3711 98.1388C95.8111 98.7388 95.0471 99.0388 94.0791 99.0388C93.1111 99.0388 92.3471 98.7388 91.7871 98.1388C91.2271 97.5308 90.9471 96.7388 90.9471 95.7628C90.9471 94.8028 91.2271 94.0188 91.7871 93.4108C92.3471 92.8028 93.1111 92.4988 94.0791 92.4988C95.2471 92.4988 96.1031 92.9228 96.6471 93.7708C96.9271 93.7708 97.2671 93.6628 97.6671 93.4468L97.2711 92.7748ZM92.7591 97.3108C93.0631 97.7428 93.5031 97.9588 94.0791 97.9588C94.6551 97.9588 95.0911 97.7428 95.3871 97.3108C95.6911 96.8788 95.8431 96.3628 95.8431 95.7628C95.8431 95.1708 95.6911 94.6588 95.3871 94.2268C95.0911 93.7948 94.6551 93.5788 94.0791 93.5788C93.5031 93.5788 93.0631 93.7948 92.7591 94.2268C92.4631 94.6588 92.3151 95.1708 92.3151 95.7628C92.3151 96.3628 92.4631 96.8788 92.7591 97.3108ZM94.7751 101.247H93.4071V99.9508H94.7751V101.247ZM102.826 101.163V92.6668H104.122V93.5068H104.146C104.506 92.8348 105.146 92.4988 106.066 92.4988C107.002 92.4988 107.718 92.8108 108.214 93.4348C108.718 94.0508 108.97 94.8388 108.97 95.7988C108.97 96.7028 108.738 97.4708 108.274 98.1028C107.818 98.7268 107.158 99.0388 106.294 99.0388C105.862 99.0388 105.458 98.9588 105.082 98.7988C104.706 98.6308 104.418 98.3868 104.218 98.0668H104.194V101.163H102.826ZM107.602 95.7748C107.602 95.1748 107.45 94.6588 107.146 94.2268C106.842 93.7948 106.422 93.5788 105.886 93.5788C105.318 93.5788 104.886 93.7748 104.59 94.1668C104.294 94.5588 104.146 95.0948 104.146 95.7748C104.146 96.4148 104.302 96.9388 104.614 97.3468C104.926 97.7548 105.35 97.9588 105.886 97.9588C106.462 97.9588 106.89 97.7468 107.17 97.3228C107.458 96.8988 107.602 96.3828 107.602 95.7748ZM110.126 98.8708V90.3028H111.494V93.4828H111.518C111.694 93.1948 111.946 92.9588 112.274 92.7748C112.61 92.5908 112.978 92.4988 113.378 92.4988C114.066 92.4988 114.602 92.6788 114.986 93.0388C115.378 93.3988 115.574 93.9228 115.574 94.6108V98.8708H114.206V94.9708C114.19 94.4828 114.086 94.1308 113.894 93.9148C113.702 93.6908 113.402 93.5788 112.994 93.5788C112.546 93.5788 112.182 93.7348 111.902 94.0468C111.63 94.3588 111.494 94.7468 111.494 95.2108V98.8708H110.126ZM122.212 94.2988V97.4908C122.212 97.6588 122.236 97.7788 122.284 97.8508C122.332 97.9228 122.416 97.9588 122.536 97.9588H122.68C122.712 97.9588 122.776 97.9508 122.872 97.9348V98.8828C122.576 98.9868 122.288 99.0388 122.008 99.0388C121.4 99.0388 121.048 98.7868 120.952 98.2828C120.696 98.5308 120.372 98.7188 119.98 98.8468C119.588 98.9748 119.196 99.0388 118.804 99.0388C118.204 99.0388 117.7 98.8828 117.292 98.5708C116.884 98.2508 116.68 97.8028 116.68 97.2268C116.68 96.8588 116.744 96.5508 116.872 96.3028C117.008 96.0468 117.204 95.8548 117.46 95.7268C117.716 95.5908 117.96 95.4948 118.192 95.4388C118.424 95.3828 118.716 95.3348 119.068 95.2948C119.212 95.2628 119.4 95.2348 119.632 95.2108C119.864 95.1868 120.04 95.1628 120.16 95.1388C120.288 95.1148 120.416 95.0788 120.544 95.0308C120.68 94.9748 120.776 94.8988 120.832 94.8028C120.896 94.7068 120.928 94.5788 120.928 94.4188C120.928 93.8588 120.5 93.5788 119.644 93.5788C119.244 93.5788 118.924 93.6628 118.684 93.8308C118.444 93.9908 118.308 94.2348 118.276 94.5628H116.908C116.956 93.8268 117.24 93.2988 117.76 92.9788C118.288 92.6588 118.944 92.4988 119.728 92.4988C120.408 92.4988 120.992 92.6468 121.48 92.9428C121.968 93.2388 122.212 93.6908 122.212 94.2988ZM120.844 96.7828V95.7628C120.716 95.8428 120.568 95.9068 120.4 95.9548C120.232 95.9948 120.008 96.0308 119.728 96.0628C119.456 96.0948 119.268 96.1188 119.164 96.1348C118.82 96.1908 118.548 96.2948 118.348 96.4468C118.148 96.5988 118.048 96.8388 118.048 97.1668C118.048 97.4468 118.18 97.6508 118.444 97.7788C118.708 97.8988 118.996 97.9588 119.308 97.9588C119.676 97.9588 120.024 97.8628 120.352 97.6708C120.68 97.4708 120.844 97.1748 120.844 96.7828ZM118.984 91.8028L120.064 90.0868H121.684L119.98 91.8028H118.984ZM123.72 101.163V92.6668H125.016V93.5068H125.04C125.4 92.8348 126.04 92.4988 126.96 92.4988C127.896 92.4988 128.612 92.8108 129.108 93.4348C129.612 94.0508 129.864 94.8388 129.864 95.7988C129.864 96.7028 129.632 97.4708 129.168 98.1028C128.712 98.7268 128.052 99.0388 127.188 99.0388C126.756 99.0388 126.352 98.9588 125.976 98.7988C125.6 98.6308 125.312 98.3868 125.112 98.0668H125.088V101.163H123.72ZM128.496 95.7748C128.496 95.1748 128.344 94.6588 128.04 94.2268C127.736 93.7948 127.316 93.5788 126.78 93.5788C126.212 93.5788 125.78 93.7748 125.484 94.1668C125.188 94.5588 125.04 95.0948 125.04 95.7748C125.04 96.4148 125.196 96.9388 125.508 97.3468C125.82 97.7548 126.244 97.9588 126.78 97.9588C127.356 97.9588 127.784 97.7468 128.064 97.3228C128.352 96.8988 128.496 96.3828 128.496 95.7748ZM36.2809 113.871V105.303H37.6489V113.871H36.2809ZM44.5874 107.667V113.871H43.2434V113.007H43.2194C43.0514 113.311 42.7994 113.559 42.4634 113.751C42.1354 113.943 41.7994 114.039 41.4554 114.039C40.6474 114.039 40.0594 113.839 39.6914 113.439C39.3234 113.039 39.1394 112.427 39.1394 111.603V107.667H40.5074V111.471C40.5074 111.999 40.6074 112.379 40.8074 112.611C41.0074 112.843 41.3034 112.959 41.6954 112.959C42.7114 112.959 43.2194 112.395 43.2194 111.267V107.667H44.5874ZM51.2261 109.299V112.491C51.2261 112.659 51.2501 112.779 51.2981 112.851C51.3461 112.923 51.4301 112.959 51.5501 112.959H51.6941C51.7261 112.959 51.7901 112.951 51.8861 112.935V113.883C51.5901 113.987 51.3021 114.039 51.0221 114.039C50.4141 114.039 50.0621 113.787 49.9661 113.283C49.7101 113.531 49.3861 113.719 48.9941 113.847C48.6021 113.975 48.2101 114.039 47.8181 114.039C47.2181 114.039 46.7141 113.883 46.3061 113.571C45.8981 113.251 45.6941 112.803 45.6941 112.227C45.6941 111.859 45.7581 111.551 45.8861 111.303C46.0221 111.047 46.2181 110.855 46.4741 110.727C46.7301 110.591 46.9741 110.495 47.2061 110.439C47.4381 110.383 47.7301 110.335 48.0821 110.295C48.2261 110.263 48.4141 110.235 48.6461 110.211C48.8781 110.187 49.0541 110.163 49.1741 110.139C49.3021 110.115 49.4301 110.079 49.5581 110.031C49.6941 109.975 49.7901 109.899 49.8461 109.803C49.9101 109.707 49.9421 109.579 49.9421 109.419C49.9421 108.859 49.5141 108.579 48.6581 108.579C48.2581 108.579 47.9381 108.663 47.6981 108.831C47.4581 108.991 47.3221 109.235 47.2901 109.563H45.9221C45.9701 108.827 46.2541 108.299 46.7741 107.979C47.3021 107.659 47.9581 107.499 48.7421 107.499C49.4221 107.499 50.0061 107.647 50.4941 107.943C50.9821 108.239 51.2261 108.691 51.2261 109.299ZM49.8581 111.783V110.763C49.7301 110.843 49.5821 110.907 49.4141 110.955C49.2461 110.995 49.0221 111.031 48.7421 111.063C48.4701 111.095 48.2821 111.119 48.1781 111.135C47.8341 111.191 47.5621 111.295 47.3621 111.447C47.1621 111.599 47.0621 111.839 47.0621 112.167C47.0621 112.447 47.1941 112.651 47.4581 112.779C47.7221 112.899 48.0101 112.959 48.3221 112.959C48.6901 112.959 49.0381 112.863 49.3661 112.671C49.6941 112.471 49.8581 112.175 49.8581 111.783ZM48.7781 105.807L47.9381 106.887H46.8341L48.1181 105.171H49.4501L50.7461 106.887H49.6301L48.7781 105.807ZM49.4741 115.923H48.1061V114.627H49.4741V115.923ZM52.074 108.687V107.667H53.106V105.807H54.474V107.667H55.71V108.687H54.474V111.999C54.474 112.319 54.51 112.543 54.582 112.671C54.662 112.791 54.846 112.851 55.134 112.851C55.39 112.851 55.582 112.835 55.71 112.803V113.859C55.31 113.907 55.014 113.931 54.822 113.931C54.15 113.931 53.698 113.811 53.466 113.571C53.242 113.323 53.122 112.915 53.106 112.347V108.687H52.074ZM65.59 109.743H64.222C64.166 109.367 64.014 109.079 63.766 108.879C63.518 108.679 63.198 108.579 62.806 108.579C62.606 108.579 62.414 108.611 62.23 108.675C62.054 108.739 61.874 108.847 61.69 108.999C61.514 109.151 61.37 109.387 61.258 109.707C61.154 110.019 61.102 110.395 61.102 110.835C61.102 111.419 61.238 111.919 61.51 112.335C61.782 112.751 62.194 112.959 62.746 112.959C63.146 112.959 63.474 112.835 63.73 112.587C63.994 112.339 64.158 111.991 64.222 111.543H65.59C65.462 112.351 65.154 112.971 64.666 113.403C64.186 113.827 63.546 114.039 62.746 114.039C61.802 114.039 61.062 113.743 60.526 113.151C59.998 112.551 59.734 111.779 59.734 110.835C59.734 109.851 59.998 109.051 60.526 108.435C61.054 107.811 61.81 107.499 62.794 107.499C63.554 107.499 64.194 107.691 64.714 108.075C65.234 108.459 65.526 109.015 65.59 109.743ZM66.7019 113.871V105.303H68.0699V108.483H68.0939C68.2699 108.195 68.5219 107.959 68.8499 107.775C69.1859 107.591 69.5539 107.499 69.9539 107.499C70.6419 107.499 71.1779 107.679 71.5619 108.039C71.9539 108.399 72.1499 108.923 72.1499 109.611V113.871H70.7819V109.971C70.7659 109.483 70.6619 109.131 70.4699 108.915C70.2779 108.691 69.9779 108.579 69.5699 108.579C69.1219 108.579 68.7579 108.735 68.4779 109.047C68.2059 109.359 68.0699 109.747 68.0699 110.211V113.871H66.7019ZM78.7286 113.139C78.1686 113.739 77.4046 114.039 76.4366 114.039C75.4686 114.039 74.7046 113.739 74.1446 113.139C73.5846 112.531 73.3046 111.739 73.3046 110.763C73.3046 109.803 73.5846 109.019 74.1446 108.411C74.7046 107.803 75.4686 107.499 76.4366 107.499C77.4046 107.499 78.1686 107.803 78.7286 108.411C79.2886 109.019 79.5686 109.803 79.5686 110.763C79.5686 111.739 79.2886 112.531 78.7286 113.139ZM75.1166 112.311C75.4206 112.743 75.8606 112.959 76.4366 112.959C77.0126 112.959 77.4486 112.743 77.7446 112.311C78.0486 111.879 78.2006 111.363 78.2006 110.763C78.2006 110.171 78.0486 109.659 77.7446 109.227C77.4486 108.795 77.0126 108.579 76.4366 108.579C75.8606 108.579 75.4206 108.795 75.1166 109.227C74.8206 109.659 74.6726 110.171 74.6726 110.763C74.6726 111.363 74.8206 111.879 75.1166 112.311ZM89.8897 105.303V113.871H88.5937V113.031H88.5697C88.2257 113.703 87.5857 114.039 86.6497 114.039C85.7057 114.039 84.9857 113.731 84.4897 113.115C83.9937 112.499 83.7457 111.703 83.7457 110.727C83.7457 109.671 84.0057 108.871 84.5257 108.327C85.0537 107.775 85.6897 107.499 86.4337 107.499C86.8497 107.499 87.2457 107.583 87.6217 107.751C88.0057 107.911 88.2977 108.151 88.4977 108.471H88.5217V105.303H89.8897ZM85.1137 110.835C85.1137 111.419 85.2577 111.919 85.5457 112.335C85.8417 112.751 86.2697 112.959 86.8297 112.959C87.3977 112.959 87.8297 112.743 88.1257 112.311C88.4217 111.879 88.5697 111.363 88.5697 110.763C88.5697 110.075 88.4137 109.539 88.1017 109.155C87.7977 108.771 87.3817 108.579 86.8537 108.579C86.2617 108.579 85.8217 108.799 85.5337 109.239C85.2537 109.679 85.1137 110.211 85.1137 110.835ZM96.5176 113.139C95.9576 113.739 95.1936 114.039 94.2256 114.039C93.2576 114.039 92.4936 113.739 91.9336 113.139C91.3736 112.531 91.0936 111.739 91.0936 110.763C91.0936 109.803 91.3736 109.019 91.9336 108.411C92.4936 107.803 93.2576 107.499 94.2256 107.499C95.1936 107.499 95.9576 107.803 96.5176 108.411C97.0776 109.019 97.3576 109.803 97.3576 110.763C97.3576 111.739 97.0776 112.531 96.5176 113.139ZM92.9056 112.311C93.2096 112.743 93.6496 112.959 94.2256 112.959C94.8016 112.959 95.2376 112.743 95.5336 112.311C95.8376 111.879 95.9896 111.363 95.9896 110.763C95.9896 110.171 95.8376 109.659 95.5336 109.227C95.2376 108.795 94.8016 108.579 94.2256 108.579C93.6496 108.579 93.2096 108.795 92.9056 109.227C92.6096 109.659 92.4616 110.171 92.4616 110.763C92.4616 111.363 92.6096 111.879 92.9056 112.311ZM103.691 109.299V112.491C103.691 112.659 103.715 112.779 103.763 112.851C103.811 112.923 103.895 112.959 104.015 112.959H104.159C104.191 112.959 104.255 112.951 104.351 112.935V113.883C104.055 113.987 103.767 114.039 103.487 114.039C102.879 114.039 102.527 113.787 102.431 113.283C102.175 113.531 101.851 113.719 101.459 113.847C101.067 113.975 100.675 114.039 100.283 114.039C99.6829 114.039 99.1789 113.883 98.7709 113.571C98.3629 113.251 98.1589 112.803 98.1589 112.227C98.1589 111.859 98.2229 111.551 98.3509 111.303C98.4869 111.047 98.6829 110.855 98.9389 110.727C99.1949 110.591 99.4389 110.495 99.6709 110.439C99.9029 110.383 100.195 110.335 100.547 110.295C100.691 110.263 100.879 110.235 101.111 110.211C101.343 110.187 101.519 110.163 101.639 110.139C101.767 110.115 101.895 110.079 102.023 110.031C102.159 109.975 102.255 109.899 102.311 109.803C102.375 109.707 102.407 109.579 102.407 109.419C102.407 108.859 101.979 108.579 101.123 108.579C100.723 108.579 100.403 108.663 100.163 108.831C99.9229 108.991 99.7869 109.235 99.7549 109.563H98.3869C98.4349 108.827 98.7189 108.299 99.2389 107.979C99.7669 107.659 100.423 107.499 101.207 107.499C101.887 107.499 102.471 107.647 102.959 107.943C103.447 108.239 103.691 108.691 103.691 109.299ZM102.323 111.783V110.763C102.195 110.843 102.047 110.907 101.879 110.955C101.711 110.995 101.487 111.031 101.207 111.063C100.935 111.095 100.747 111.119 100.643 111.135C100.299 111.191 100.027 111.295 99.8269 111.447C99.6269 111.599 99.5269 111.839 99.5269 112.167C99.5269 112.447 99.6589 112.651 99.9229 112.779C100.187 112.899 100.475 112.959 100.787 112.959C101.155 112.959 101.503 112.863 101.831 112.671C102.159 112.471 102.323 112.175 102.323 111.783ZM105.163 113.871V107.667H106.459V108.579L106.483 108.603C106.699 108.259 106.975 107.991 107.311 107.799C107.647 107.599 108.015 107.499 108.415 107.499C109.103 107.499 109.639 107.679 110.023 108.039C110.415 108.399 110.611 108.923 110.611 109.611V113.871H109.243V109.971C109.227 109.483 109.123 109.131 108.931 108.915C108.739 108.691 108.439 108.579 108.031 108.579C107.583 108.579 107.219 108.735 106.939 109.047C106.667 109.359 106.531 109.747 106.531 110.211V113.871H105.163ZM112.054 113.871V105.303H113.422V108.483H113.446C113.622 108.195 113.874 107.959 114.202 107.775C114.538 107.591 114.906 107.499 115.306 107.499C115.994 107.499 116.53 107.679 116.914 108.039C117.306 108.399 117.502 108.923 117.502 109.611V113.871H116.134V109.971C116.118 109.483 116.014 109.131 115.822 108.915C115.63 108.691 115.33 108.579 114.922 108.579C114.474 108.579 114.11 108.735 113.83 109.047C113.558 109.359 113.422 109.747 113.422 110.211V113.871H112.054ZM58.698 128.871V122.667H59.994V123.579L60.018 123.603C60.234 123.259 60.51 122.991 60.846 122.799C61.182 122.599 61.55 122.499 61.95 122.499C62.638 122.499 63.174 122.679 63.558 123.039C63.95 123.399 64.146 123.923 64.146 124.611V128.871H62.778V124.971C62.762 124.483 62.658 124.131 62.466 123.915C62.274 123.691 61.974 123.579 61.566 123.579C61.118 123.579 60.754 123.735 60.474 124.047C60.202 124.359 60.066 124.747 60.066 125.211V128.871H58.698ZM71.3247 122.667V128.547C71.3247 129.475 71.0647 130.171 70.5447 130.635C70.0247 131.099 69.2687 131.331 68.2767 131.331C67.8207 131.331 67.4007 131.275 67.0167 131.163C66.6407 131.051 66.3047 130.843 66.0087 130.539C65.7127 130.235 65.5447 129.855 65.5047 129.399H66.8727C66.9527 129.759 67.1167 129.999 67.3647 130.119C67.6207 130.247 67.9527 130.311 68.3607 130.311C69.4247 130.311 69.9567 129.783 69.9567 128.727V127.779H69.9327C69.7407 128.123 69.4767 128.391 69.1407 128.583C68.8127 128.775 68.4567 128.871 68.0727 128.871C67.4407 128.871 66.9087 128.719 66.4767 128.415C66.0527 128.111 65.7487 127.723 65.5647 127.251C65.3807 126.771 65.2887 126.223 65.2887 125.607C65.2887 124.735 65.5407 123.999 66.0447 123.399C66.5567 122.799 67.2407 122.499 68.0967 122.499C68.9847 122.499 69.5967 122.839 69.9327 123.519H69.9567V122.667H71.3247ZM68.2887 127.791C68.8487 127.791 69.2647 127.583 69.5367 127.167C69.8167 126.743 69.9567 126.231 69.9567 125.631C69.9567 125.047 69.8167 124.559 69.5367 124.167C69.2647 123.775 68.8487 123.579 68.2887 123.579C67.7287 123.579 67.3167 123.791 67.0527 124.215C66.7887 124.639 66.6567 125.147 66.6567 125.739C66.6567 126.299 66.7927 126.783 67.0647 127.191C67.3447 127.591 67.7527 127.791 68.2887 127.791ZM72.7019 128.871V120.303H74.0699V123.483H74.0939C74.2699 123.195 74.5219 122.959 74.8499 122.775C75.1859 122.591 75.5539 122.499 75.9539 122.499C76.6419 122.499 77.1779 122.679 77.5619 123.039C77.9539 123.399 78.1499 123.923 78.1499 124.611V128.871H76.7819V124.971C76.7659 124.483 76.6619 124.131 76.4699 123.915C76.2779 123.691 75.9779 123.579 75.5699 123.579C75.1219 123.579 74.7579 123.735 74.4779 124.047C74.2059 124.359 74.0699 124.747 74.0699 125.211V128.871H72.7019ZM79.6286 121.599V120.303H80.9966V121.599H79.6286ZM79.6286 128.871V122.667H80.9966V128.871H79.6286ZM83.5551 125.223H86.7471C86.7151 124.767 86.5591 124.379 86.2791 124.059C85.9991 123.739 85.6351 123.579 85.1871 123.579C84.7231 123.579 84.3391 123.735 84.0351 124.047C83.7311 124.359 83.5711 124.751 83.5551 125.223ZM88.1151 126.123H83.5551C83.5551 126.643 83.6951 127.079 83.9751 127.431C84.2631 127.783 84.6791 127.959 85.2231 127.959C85.9911 127.959 86.4951 127.615 86.7351 126.927H88.0311C87.8871 127.591 87.5551 128.111 87.0351 128.487C86.5231 128.855 85.9191 129.039 85.2231 129.039C84.2631 129.039 83.5151 128.743 82.9791 128.151C82.4511 127.551 82.1871 126.759 82.1871 125.775C82.1871 124.863 82.4631 124.091 83.0151 123.459C83.5671 122.819 84.2911 122.499 85.1871 122.499C86.1391 122.499 86.8951 122.863 87.4551 123.591C88.0151 124.319 88.2351 125.163 88.1151 126.123ZM85.1751 120.807L84.3351 121.887H83.2311L84.5151 120.171H85.8471L87.1431 121.887H86.0271L85.1751 120.807ZM85.8711 130.923H84.5031V129.627H85.8711V130.923ZM89.1911 131.163V122.667H90.4871V123.507H90.5111C90.8711 122.835 91.5111 122.499 92.4311 122.499C93.3671 122.499 94.0831 122.811 94.5791 123.435C95.0831 124.051 95.3351 124.839 95.3351 125.799C95.3351 126.703 95.1031 127.471 94.6391 128.103C94.1831 128.727 93.5231 129.039 92.6591 129.039C92.2271 129.039 91.8231 128.959 91.4471 128.799C91.0711 128.631 90.7831 128.387 90.5831 128.067H90.5591V131.163H89.1911ZM93.9671 125.775C93.9671 125.175 93.8151 124.659 93.5111 124.227C93.2071 123.795 92.7871 123.579 92.2511 123.579C91.6831 123.579 91.2511 123.775 90.9551 124.167C90.6591 124.559 90.5111 125.095 90.5111 125.775C90.5111 126.415 90.6671 126.939 90.9791 127.347C91.2911 127.755 91.7151 127.959 92.2511 127.959C92.8271 127.959 93.2551 127.747 93.5351 127.323C93.8231 126.899 93.9671 126.383 93.9671 125.775Z" fill="#FFFDFD"/>
</svg>
