<svg width="155" height="156" viewBox="0 0 155 156" fill="none" xmlns="http://www.w3.org/2000/svg">
<rect x="0.367188" y="0.170654" width="154.265" height="155.509" fill="#0280CD"/>
<path d="M26.3409 94.3882H24.8409C24.5889 93.3922 23.9529 92.6842 22.7049 92.6842C20.8689 92.6842 20.1009 94.3042 20.1009 95.9482C20.1009 97.5922 20.8689 99.2122 22.7049 99.2122C24.0489 99.2122 24.7569 98.2162 24.8889 96.9682H26.3529C26.2209 99.0202 24.7809 100.436 22.7049 100.436C20.1489 100.436 18.6009 98.4082 18.6009 95.9482C18.6009 93.5122 20.1489 91.4602 22.7049 91.4602C24.6489 91.4602 26.1489 92.5402 26.3409 94.3882ZM27.525 100.232V91.6642H28.893V94.8442H28.917C29.253 94.2802 29.961 93.8602 30.777 93.8602C32.133 93.8602 32.973 94.5682 32.973 95.9722V100.232H31.605V96.3322C31.569 95.3602 31.209 94.9402 30.393 94.9402C29.481 94.9402 28.893 95.6602 28.893 96.5722V100.232H27.525ZM40.3677 94.1362L41.3997 93.5482L42.1797 94.9042L41.2557 95.4322C40.8717 95.6602 40.4637 95.8162 40.0917 95.8162C40.0077 95.8162 39.9477 95.8042 39.8637 95.7922V100.232H38.5197V99.3682H38.4957C38.1597 99.9922 37.4157 100.4 36.7317 100.4C35.0997 100.4 34.4157 99.5962 34.4157 97.9642V94.0282H35.7837V97.8322C35.7837 98.9242 36.2157 99.3202 36.9717 99.3202C38.1117 99.3202 38.4957 98.5882 38.4957 97.6282V94.0282H39.8637V95.1322C40.0917 95.1322 40.3677 95.0362 40.7637 94.8082L40.3677 94.1362ZM48.5845 94.1362L49.6165 93.5482L50.3965 94.9042L49.4725 95.4322C49.0885 95.6602 48.6805 95.8162 48.3085 95.8162C48.4525 96.2122 48.5245 96.6562 48.5245 97.1242C48.5245 99.0322 47.3725 100.4 45.3925 100.4C43.4125 100.4 42.2605 99.0322 42.2605 97.1242C42.2605 95.2402 43.4125 93.8602 45.3925 93.8602C46.5565 93.8602 47.4445 94.3282 47.9605 95.1322C48.2845 95.1322 48.5605 95.0362 48.9805 94.8082L48.5845 94.1362ZM45.3925 99.3202C46.6165 99.3202 47.1565 98.2042 47.1565 97.1242C47.1565 96.0562 46.6165 94.9402 45.3925 94.9402C44.1685 94.9402 43.6285 96.0562 43.6285 97.1242C43.6285 98.2042 44.1685 99.3202 45.3925 99.3202ZM50.7633 100.232V94.0282H52.0593V94.9402L52.0833 94.9642C52.5033 94.2802 53.1993 93.8602 54.0153 93.8602C55.3713 93.8602 56.2113 94.5682 56.2113 95.9722V100.232H54.8433V96.3322C54.8073 95.3602 54.4473 94.9402 53.6313 94.9402C52.7193 94.9402 52.1313 95.6602 52.1313 96.5722V100.232H50.7633ZM63.3899 94.0282V99.9082C63.3899 101.78 62.3099 102.692 60.3419 102.692C59.0939 102.692 57.7019 102.212 57.5699 100.76H58.9379C59.1059 101.54 59.7299 101.672 60.4259 101.672C61.5299 101.672 62.0219 101.108 62.0219 100.088V99.1402H61.9979C61.6139 99.8242 60.9059 100.232 60.1379 100.232C58.1699 100.232 57.3539 98.7442 57.3539 96.9682C57.3539 95.3002 58.3979 93.8602 60.1619 93.8602C60.9419 93.8602 61.6499 94.1722 61.9979 94.8802H62.0219V94.0282H63.3899ZM60.3539 99.1522C61.5659 99.1522 62.0219 98.0602 62.0219 96.9922C62.0219 95.9242 61.5419 94.9402 60.3539 94.9402C59.1419 94.9402 58.7219 96.0682 58.7219 97.1002C58.7219 98.1082 59.2139 99.1522 60.3539 99.1522ZM67.4831 95.0482V94.0282H68.5151V92.1682H69.8831V94.0282H71.1191V95.0482H69.8831V98.3602C69.8831 98.9242 69.9311 99.2122 70.5431 99.2122C70.7351 99.2122 70.9271 99.2122 71.1191 99.1642V100.22C70.8191 100.256 70.5311 100.292 70.2311 100.292C68.7911 100.292 68.5511 99.7402 68.5151 98.7082V95.0482H67.4831ZM72.1032 100.232V94.0282H73.3872V95.2282H73.4112C73.5672 94.5682 74.3952 93.8602 75.2232 93.8602C75.5472 93.8602 75.6072 93.8842 75.7392 93.8962V95.2162C75.5472 95.1802 75.3432 95.1562 75.1512 95.1562C74.2272 95.1562 73.4712 95.9002 73.4712 97.2802V100.232H72.1032ZM77.7259 100.232H76.3579V94.0282H77.7259V100.232ZM75.0619 91.4482H76.6699L77.7619 93.1642H76.7659L75.0619 91.4482ZM79.2164 100.232V94.0282H80.5124V94.9402L80.5364 94.9642C80.9564 94.2802 81.6524 93.8602 82.4684 93.8602C83.8244 93.8602 84.6644 94.5682 84.6644 95.9722V100.232H83.2964V96.3322C83.2604 95.3602 82.9004 94.9402 82.0844 94.9402C81.1724 94.9402 80.5844 95.6602 80.5844 96.5722V100.232H79.2164ZM86.1071 100.232V91.6642H87.4751V94.8442H87.4991C87.8351 94.2802 88.5431 93.8602 89.3591 93.8602C90.7151 93.8602 91.5551 94.5682 91.5551 95.9722V100.232H90.1871V96.3322C90.1511 95.3602 89.7911 94.9402 88.9751 94.9402C88.0631 94.9402 87.4751 95.6602 87.4751 96.5722V100.232H86.1071ZM96.3375 100.232V91.6642H97.7055V94.8442H97.7295C98.0655 94.2802 98.7735 93.8602 99.5895 93.8602C100.946 93.8602 101.786 94.5682 101.786 95.9722V100.232H100.418V96.3322C100.382 95.3602 100.022 94.9402 99.2055 94.9402C98.2935 94.9402 97.7055 95.6602 97.7055 96.5722V100.232H96.3375ZM106.072 100.4C104.092 100.4 102.94 99.0322 102.94 97.1242C102.94 95.2402 104.092 93.8602 106.072 93.8602C108.052 93.8602 109.204 95.2402 109.204 97.1242C109.204 99.0322 108.052 100.4 106.072 100.4ZM106.072 99.3202C107.296 99.3202 107.836 98.2042 107.836 97.1242C107.836 96.0562 107.296 94.9402 106.072 94.9402C104.848 94.9402 104.308 96.0562 104.308 97.1242C104.308 98.2042 104.848 99.3202 106.072 99.3202ZM106.06 92.1682L105.22 93.2482H104.116L105.4 91.5322H106.732L108.028 93.2482H106.912L106.06 92.1682ZM107.524 89.5162H108.196C108.136 89.9002 108.028 90.2482 107.8 90.4882C107.596 90.7402 107.296 90.8962 106.864 90.8962C106.588 90.8962 106.276 90.8002 105.976 90.6682C105.604 90.5122 105.436 90.4522 105.16 90.4522C104.872 90.4522 104.704 90.6202 104.644 90.9442H103.96C104.056 90.3322 104.476 89.5882 105.208 89.5882C105.508 89.5882 105.688 89.6242 106.18 89.8282C106.516 89.9722 106.696 90.0442 106.924 90.0442C107.272 90.0442 107.44 89.8402 107.524 89.5162ZM113.057 95.0482V94.0282H114.089V92.1682H115.457V94.0282H116.693V95.0482H115.457V98.3602C115.457 98.9242 115.505 99.2122 116.117 99.2122C116.309 99.2122 116.501 99.2122 116.693 99.1642V100.22C116.393 100.256 116.105 100.292 115.805 100.292C114.365 100.292 114.125 99.7402 114.089 98.7082V95.0482H113.057ZM117.677 100.232V94.0282H118.961V95.2282H118.985C119.141 94.5682 119.969 93.8602 120.797 93.8602C121.121 93.8602 121.181 93.8842 121.313 93.8962V95.2162C121.121 95.1802 120.917 95.1562 120.725 95.1562C119.801 95.1562 119.045 95.9002 119.045 97.2802V100.232H117.677ZM127.932 94.1362L128.964 93.5482L129.744 94.9042L128.82 95.4322C128.436 95.6602 128.028 95.8162 127.656 95.8162C127.8 96.2122 127.872 96.6562 127.872 97.1242C127.872 99.0322 126.72 100.4 124.74 100.4C122.76 100.4 121.608 99.0322 121.608 97.1242C121.608 95.2402 122.76 93.8602 124.74 93.8602C125.904 93.8602 126.792 94.3282 127.308 95.1322C127.632 95.1322 127.908 95.0362 128.328 94.8082L127.932 94.1362ZM124.74 99.3202C125.964 99.3202 126.504 98.2042 126.504 97.1242C126.504 96.0562 125.964 94.9402 124.74 94.9402C123.516 94.9402 122.976 96.0562 122.976 97.1242C122.976 98.2042 123.516 99.3202 124.74 99.3202ZM125.436 102.608H124.068V101.312H125.436V102.608ZM14.4946 117.524V109.028H15.7906V109.868H15.8146C16.1986 109.148 16.9306 108.86 17.7346 108.86C19.6906 108.86 20.6386 110.336 20.6386 112.16C20.6386 113.84 19.7866 115.4 17.9626 115.4C17.1706 115.4 16.3066 115.112 15.8866 114.428H15.8626V117.524H14.4946ZM19.2706 112.136C19.2706 111.02 18.6826 109.94 17.5546 109.94C16.4026 109.94 15.8146 110.804 15.8146 112.136C15.8146 113.384 16.4506 114.32 17.5546 114.32C18.8026 114.32 19.2706 113.216 19.2706 112.136ZM21.7946 115.232V106.664H23.1626V109.844H23.1866C23.5226 109.28 24.2306 108.86 25.0466 108.86C26.4026 108.86 27.2426 109.568 27.2426 110.972V115.232H25.8746V111.332C25.8386 110.36 25.4786 109.94 24.6626 109.94C23.7506 109.94 23.1626 110.66 23.1626 111.572V115.232H21.7946ZM33.8812 110.66V113.852C33.8812 114.188 33.9532 114.32 34.2052 114.32H34.3492C34.4092 114.32 34.4692 114.308 34.5412 114.296V115.244C34.3372 115.316 33.9052 115.4 33.6772 115.4C33.1132 115.4 32.7292 115.208 32.6212 114.644C32.0812 115.172 31.2052 115.4 30.4732 115.4C29.3572 115.4 28.3492 114.8 28.3492 113.588C28.3492 112.04 29.5852 111.788 30.7372 111.656C31.7332 111.464 32.5972 111.596 32.5972 110.78C32.5972 110.06 31.8532 109.94 31.3132 109.94C30.5452 109.94 30.0052 110.252 29.9452 110.924H28.5772C28.6732 109.328 30.0172 108.86 31.3972 108.86C32.6092 108.86 33.8812 109.352 33.8812 110.66ZM32.5132 113.144V112.124C32.0932 112.4 31.4452 112.388 30.8332 112.496C30.2452 112.592 29.7172 112.808 29.7172 113.528C29.7172 114.152 30.4972 114.32 30.9772 114.32C31.5772 114.32 32.5132 114.008 32.5132 113.144ZM30.6532 108.164L31.7332 106.448H33.3532L31.6492 108.164H30.6532ZM35.3892 117.524V109.028H36.6852V109.868H36.7092C37.0932 109.148 37.8252 108.86 38.6292 108.86C40.5852 108.86 41.5332 110.336 41.5332 112.16C41.5332 113.84 40.6812 115.4 38.8572 115.4C38.0652 115.4 37.2012 115.112 36.7812 114.428H36.7572V117.524H35.3892ZM40.1652 112.136C40.1652 111.02 39.5772 109.94 38.4492 109.94C37.2972 109.94 36.7092 110.804 36.7092 112.136C36.7092 113.384 37.3452 114.32 38.4492 114.32C39.6972 114.32 40.1652 113.216 40.1652 112.136ZM46.0649 115.232V106.664H47.4329V115.232H46.0649ZM50.5915 115.208L48.2395 109.028H49.7395L51.3595 113.66H51.3835L52.9555 109.028H54.3835L51.9715 115.568C51.5275 116.684 51.2155 117.692 49.7755 117.692C49.4515 117.692 49.1395 117.668 48.8275 117.62V116.468C49.0555 116.504 49.2475 116.552 49.4755 116.552C50.0995 116.552 50.2795 116.216 50.4355 115.688L50.5915 115.208ZM50.8555 108.164L51.9355 106.448H53.5555L51.8515 108.164H50.8555ZM64.33 106.664V115.232H63.034V114.392H63.01C62.638 115.112 61.87 115.4 61.09 115.4C59.134 115.4 58.186 113.948 58.186 112.088C58.186 109.832 59.518 108.86 60.874 108.86C61.642 108.86 62.518 109.148 62.938 109.832H62.962V106.664H64.33ZM59.554 112.196C59.554 113.264 60.082 114.32 61.27 114.32C62.482 114.32 63.01 113.204 63.01 112.124C63.01 110.744 62.35 109.94 61.294 109.94C60.01 109.94 59.554 111.092 59.554 112.196ZM68.6659 115.4C66.6859 115.4 65.5339 114.032 65.5339 112.124C65.5339 110.24 66.6859 108.86 68.6659 108.86C70.6459 108.86 71.7979 110.24 71.7979 112.124C71.7979 114.032 70.6459 115.4 68.6659 115.4ZM68.6659 114.32C69.8899 114.32 70.4299 113.204 70.4299 112.124C70.4299 111.056 69.8899 109.94 68.6659 109.94C67.4419 109.94 66.9019 111.056 66.9019 112.124C66.9019 113.204 67.4419 114.32 68.6659 114.32ZM78.1312 110.66V113.852C78.1312 114.188 78.2032 114.32 78.4552 114.32H78.5992C78.6592 114.32 78.7192 114.308 78.7912 114.296V115.244C78.5872 115.316 78.1552 115.4 77.9272 115.4C77.3632 115.4 76.9792 115.208 76.8712 114.644C76.3312 115.172 75.4552 115.4 74.7232 115.4C73.6072 115.4 72.5992 114.8 72.5992 113.588C72.5992 112.04 73.8352 111.788 74.9872 111.656C75.9832 111.464 76.8472 111.596 76.8472 110.78C76.8472 110.06 76.1032 109.94 75.5632 109.94C74.7952 109.94 74.2552 110.252 74.1952 110.924H72.8272C72.9232 109.328 74.2672 108.86 75.6472 108.86C76.8592 108.86 78.1312 109.352 78.1312 110.66ZM76.7632 113.144V112.124C76.3432 112.4 75.6952 112.388 75.0832 112.496C74.4952 112.592 73.9672 112.808 73.9672 113.528C73.9672 114.152 74.7472 114.32 75.2272 114.32C75.8272 114.32 76.7632 114.008 76.7632 113.144ZM79.6032 115.232V109.028H80.8992V109.94L80.9232 109.964C81.3432 109.28 82.0392 108.86 82.8552 108.86C84.2112 108.86 85.0512 109.568 85.0512 110.972V115.232H83.6832V111.332C83.6472 110.36 83.2872 109.94 82.4712 109.94C81.5592 109.94 80.9712 110.66 80.9712 111.572V115.232H79.6032ZM86.4938 115.232V106.664H87.8618V109.844H87.8858C88.2218 109.28 88.9298 108.86 89.7458 108.86C91.1018 108.86 91.9418 109.568 91.9418 110.972V115.232H90.5738V111.332C90.5378 110.36 90.1778 109.94 89.3618 109.94C88.4498 109.94 87.8618 110.66 87.8618 111.572V115.232H86.4938ZM96.7242 115.232V109.028H98.0202V109.94L98.0442 109.964C98.4642 109.28 99.1602 108.86 99.9762 108.86C101.332 108.86 102.172 109.568 102.172 110.972V115.232H100.804V111.332C100.768 110.36 100.408 109.94 99.5922 109.94C98.6802 109.94 98.0922 110.66 98.0922 111.572V115.232H96.7242ZM109.351 109.028V114.908C109.351 116.78 108.271 117.692 106.303 117.692C105.055 117.692 103.663 117.212 103.531 115.76H104.899C105.067 116.54 105.691 116.672 106.387 116.672C107.491 116.672 107.983 116.108 107.983 115.088V114.14H107.959C107.575 114.824 106.867 115.232 106.099 115.232C104.131 115.232 103.315 113.744 103.315 111.968C103.315 110.3 104.359 108.86 106.123 108.86C106.903 108.86 107.611 109.172 107.959 109.88H107.983V109.028H109.351ZM106.315 114.152C107.527 114.152 107.983 113.06 107.983 111.992C107.983 110.924 107.503 109.94 106.315 109.94C105.103 109.94 104.683 111.068 104.683 112.1C104.683 113.108 105.175 114.152 106.315 114.152ZM110.728 115.232V106.664H112.096V109.844H112.12C112.456 109.28 113.164 108.86 113.98 108.86C115.336 108.86 116.176 109.568 116.176 110.972V115.232H114.808V111.332C114.772 110.36 114.412 109.94 113.596 109.94C112.684 109.94 112.096 110.66 112.096 111.572V115.232H110.728ZM117.655 107.96V106.664H119.023V107.96H117.655ZM117.655 115.232V109.028H119.023V115.232H117.655ZM121.581 111.584H124.773C124.713 110.72 124.149 109.94 123.213 109.94C122.265 109.94 121.617 110.66 121.581 111.584ZM126.141 112.484H121.581C121.581 113.456 122.109 114.32 123.249 114.32C124.053 114.32 124.521 113.972 124.761 113.288H126.057C125.769 114.644 124.593 115.4 123.249 115.4C121.293 115.4 120.213 114.056 120.213 112.136C120.213 110.372 121.365 108.86 123.213 108.86C125.169 108.86 126.369 110.624 126.141 112.484ZM123.201 107.168L122.361 108.248H121.257L122.541 106.532H123.873L125.169 108.248H124.053L123.201 107.168ZM123.897 117.284H122.529V115.988H123.897V117.284ZM127.217 117.524V109.028H128.513V109.868H128.537C128.921 109.148 129.653 108.86 130.457 108.86C132.413 108.86 133.361 110.336 133.361 112.16C133.361 113.84 132.509 115.4 130.685 115.4C129.893 115.4 129.029 115.112 128.609 114.428H128.585V117.524H127.217ZM131.993 112.136C131.993 111.02 131.405 109.94 130.277 109.94C129.125 109.94 128.537 110.804 128.537 112.136C128.537 113.384 129.173 114.32 130.277 114.32C131.525 114.32 131.993 113.216 131.993 112.136ZM45.3878 130.232L43.1318 124.028H44.6198L46.1918 128.792H46.2158L47.7278 124.028H49.1438L46.9238 130.232H45.3878ZM55.9184 124.136L56.9504 123.548L57.7304 124.904L56.8064 125.432C56.4224 125.66 56.0144 125.816 55.6424 125.816C55.5584 125.816 55.4984 125.804 55.4144 125.792V130.232H54.0704V129.368H54.0464C53.7104 129.992 52.9664 130.4 52.2824 130.4C50.6504 130.4 49.9664 129.596 49.9664 127.964V124.028H51.3344V127.832C51.3344 128.924 51.7664 129.32 52.5224 129.32C53.6624 129.32 54.0464 128.588 54.0464 127.628V124.028H55.4144V125.132C55.6424 125.132 55.9184 125.036 56.3144 124.808L55.9184 124.136ZM50.9984 121.448H52.6064L53.6984 123.164H52.7024L50.9984 121.448ZM63.2952 125.66V128.852C63.2952 129.188 63.3672 129.32 63.6193 129.32H63.7632C63.8232 129.32 63.8833 129.308 63.9553 129.296V130.244C63.7512 130.316 63.3192 130.4 63.0912 130.4C62.5272 130.4 62.1432 130.208 62.0352 129.644C61.4952 130.172 60.6192 130.4 59.8872 130.4C58.7712 130.4 57.7632 129.8 57.7632 128.588C57.7632 127.04 58.9992 126.788 60.1512 126.656C61.1472 126.464 62.0112 126.596 62.0112 125.78C62.0112 125.06 61.2672 124.94 60.7272 124.94C59.9592 124.94 59.4192 125.252 59.3592 125.924H57.9912C58.0872 124.328 59.4312 123.86 60.8112 123.86C62.0232 123.86 63.2952 124.352 63.2952 125.66ZM61.9272 128.144V127.124C61.5072 127.4 60.8592 127.388 60.2472 127.496C59.6592 127.592 59.1312 127.808 59.1312 128.528C59.1312 129.152 59.9112 129.32 60.3912 129.32C60.9912 129.32 61.9272 129.008 61.9272 128.144ZM69.7511 130.232L67.4951 124.028H68.9831L70.5551 128.792H70.5791L72.0911 124.028H73.5071L71.2871 130.232H69.7511ZM79.5257 125.66V128.852C79.5257 129.188 79.5977 129.32 79.8497 129.32H79.9937C80.0537 129.32 80.1137 129.308 80.1857 129.296V130.244C79.9817 130.316 79.5497 130.4 79.3217 130.4C78.7577 130.4 78.3737 130.208 78.2657 129.644C77.7257 130.172 76.8497 130.4 76.1177 130.4C75.0017 130.4 73.9937 129.8 73.9937 128.588C73.9937 127.04 75.2297 126.788 76.3817 126.656C77.3777 126.464 78.2417 126.596 78.2417 125.78C78.2417 125.06 77.4977 124.94 76.9577 124.94C76.1897 124.94 75.6497 125.252 75.5897 125.924H74.2217C74.3177 124.328 75.6617 123.86 77.0417 123.86C78.2537 123.86 79.5257 124.352 79.5257 125.66ZM78.1577 128.144V127.124C77.7377 127.4 77.0897 127.388 76.4777 127.496C75.8897 127.592 75.3617 127.808 75.3617 128.528C75.3617 129.152 76.1417 129.32 76.6217 129.32C77.2217 129.32 78.1577 129.008 78.1577 128.144ZM75.1577 121.448H76.7657L77.8577 123.164H76.8617L75.1577 121.448ZM84.3375 130.232V124.028H85.6335V124.94L85.6575 124.964C86.0775 124.28 86.7735 123.86 87.5895 123.86C88.9455 123.86 89.7855 124.568 89.7855 125.972V130.232H88.4175V126.332C88.3815 125.36 88.0215 124.94 87.2055 124.94C86.2935 124.94 85.7055 125.66 85.7055 126.572V130.232H84.3375ZM91.2282 130.232V121.664H92.5962V124.844H92.6202C92.9562 124.28 93.6642 123.86 94.4802 123.86C95.8362 123.86 96.6762 124.568 96.6762 125.972V130.232H95.3082V126.332C95.2722 125.36 94.9122 124.94 94.0962 124.94C93.1842 124.94 92.5962 125.66 92.5962 126.572V130.232H91.2282ZM100.963 130.4C98.9828 130.4 97.8308 129.032 97.8308 127.124C97.8308 125.24 98.9828 123.86 100.963 123.86C102.943 123.86 104.095 125.24 104.095 127.124C104.095 129.032 102.943 130.4 100.963 130.4ZM100.963 129.32C102.187 129.32 102.727 128.204 102.727 127.124C102.727 126.056 102.187 124.94 100.963 124.94C99.7388 124.94 99.1988 126.056 99.1988 127.124C99.1988 128.204 99.7388 129.32 100.963 129.32ZM100.447 121.4L100.423 120.812C100.639 120.788 100.819 120.776 100.975 120.776C101.467 120.776 102.223 121.004 102.223 121.772C102.223 122.108 102.055 122.468 101.395 122.612L101.371 122.876H100.711V122.36C101.323 122.312 101.467 122.06 101.467 121.856C101.467 121.484 101.299 121.352 100.867 121.352C100.711 121.352 100.579 121.364 100.447 121.4Z" fill="#FFFDFD"/>
<path fill-rule="evenodd" clip-rule="evenodd" d="M82.0697 23.0532C81.9131 23.102 81.6806 23.2618 81.3227 23.5666C79.1561 25.4113 76.7839 26.4101 73.686 26.782C73.0677 26.8562 72.7417 26.861 70.3199 26.8307C70.0273 26.8271 69.9019 26.8487 69.7414 26.9302C69.4289 27.089 69.259 27.2474 69.0975 27.5301L68.9504 27.7877L68.9357 29.6837L68.9211 31.5797H65.0618C62.6381 31.5797 61.0236 31.599 60.7219 31.6316C58.828 31.8364 57.256 33.1287 56.6133 35.0093C56.3344 35.8252 56.3508 34.8186 56.3508 51.1189V66.1899L56.4621 66.6005C56.9133 68.2642 58.1416 69.3114 60.1605 69.7537L60.6336 69.8574L73.6316 69.8736C82.9307 69.8852 86.683 69.8748 86.8172 69.8371C87.063 69.7679 87.3447 69.5238 87.4581 69.2819C87.6895 68.7877 87.4636 68.1622 86.9675 67.9231C86.7849 67.8351 86.3759 67.8315 73.8059 67.8073L60.8328 67.7822L60.4225 67.6753C59.2844 67.3786 58.6543 66.7719 58.5036 65.8274C58.4368 65.409 58.5126 64.8646 58.69 64.4888C58.9681 63.8995 59.6631 63.4461 60.5653 63.2656C61.0195 63.1747 61.3721 63.1721 73.712 63.1715C82.0841 63.1711 86.4825 63.1542 86.6586 63.1218C87.0186 63.0556 87.2708 62.8761 87.4248 62.5763L87.5509 62.3307V57.95V53.5693L87.8988 53.3688C88.5256 53.0076 89.7039 52.2323 90.415 51.7132C93.2885 49.6154 95.1337 47.3109 95.8417 44.9359C96.154 43.8883 96.1338 44.4743 96.1524 35.8838C96.1711 27.2127 96.1897 27.7473 95.8548 27.3249C95.766 27.213 95.5701 27.054 95.4194 26.9718C95.1752 26.8384 95.1051 26.823 94.772 26.8296C92.6935 26.8707 91.8747 26.8587 91.2611 26.7779C89.4951 26.5454 88.1846 26.178 86.779 25.5211C85.5933 24.9669 84.8473 24.4876 83.8442 23.6352C83.5737 23.4054 83.2606 23.1719 83.1484 23.1163C82.887 22.9868 82.378 22.957 82.0697 23.0532ZM83.6665 27.0246C86.1132 28.6113 89.2007 29.5422 92.3194 29.6335L93.278 29.6616V36.4917C93.278 43.9359 93.2909 43.5719 92.9965 44.4287C92.3152 46.4117 90.2998 48.523 87.2136 50.4867C86.7829 50.7609 86.1279 51.1539 85.7581 51.3601C85.0511 51.7544 83.3588 52.5902 82.8359 52.8033L82.5282 52.9286L81.815 52.6112C79.4791 51.5717 77.1066 50.1244 75.3749 48.6825C74.7356 48.1502 73.7161 47.109 73.275 46.5381C72.3816 45.3815 71.9192 44.3045 71.812 43.1304C71.779 42.7696 71.7657 40.2639 71.7749 36.1203L71.789 29.6716L72.7103 29.6404C75.4343 29.5479 78.0739 28.8673 80.2882 27.6863C80.8373 27.3934 81.8871 26.7319 82.2958 26.4211L82.5437 26.2326L82.9183 26.5075C83.1244 26.6587 83.461 26.8914 83.6665 27.0246ZM89.3571 33.9493C89.2411 33.9715 89.0618 34.0268 88.9586 34.0722C88.8356 34.1265 87.6268 35.2619 85.4473 37.3704L82.1235 40.586L80.517 39.036C78.6905 37.2738 78.7275 37.2992 78.0465 37.3374C77.7385 37.3547 77.6053 37.3871 77.4284 37.4877C76.9694 37.7486 76.7257 38.1695 76.7238 38.7046C76.7217 39.3002 76.7089 39.2846 79.1042 41.6101C80.5969 43.0593 81.3194 43.7276 81.4752 43.8032C81.7844 43.9531 82.2768 43.9832 82.6264 43.8737C82.8813 43.7938 83.0906 43.5998 86.8425 39.967C89.738 37.1635 90.8196 36.0865 90.8995 35.9271C91.0278 35.6715 91.0705 35.2129 90.9924 34.9315C90.8072 34.2642 90.0596 33.8153 89.3571 33.9493ZM60.7573 64.7095C60.1671 65.0141 60.1328 65.8413 60.6949 66.2149L60.8753 66.3348L73.3292 66.349C82.0724 66.359 85.838 66.3478 85.9675 66.3115C86.069 66.2831 86.2233 66.2016 86.3104 66.1305C86.7582 65.7651 86.6878 65.0261 86.1776 64.7361L85.9734 64.62H73.4522C61.3565 64.62 60.925 64.6231 60.7573 64.7095Z" fill="#FFFDFD"/>
</svg>
