<svg width="156" height="155" viewBox="0 0 156 155" fill="none" xmlns="http://www.w3.org/2000/svg">
<rect x="0.123047" width="155.509" height="154.265" fill="#0280CD"/>
<path d="M20.3122 100.926H18.8122C18.5602 99.93 17.9242 99.222 16.6762 99.222C14.8402 99.222 14.0722 100.842 14.0722 102.486C14.0722 104.13 14.8402 105.75 16.6762 105.75C18.0202 105.75 18.7282 104.754 18.8602 103.506H20.3242C20.1922 105.558 18.7522 106.974 16.6762 106.974C14.1202 106.974 12.5722 104.946 12.5722 102.486C12.5722 100.05 14.1202 97.998 16.6762 97.998C18.6202 97.998 20.1202 99.078 20.3122 100.926ZM21.4963 106.77V98.202H22.8643V101.382H22.8883C23.2243 100.818 23.9323 100.398 24.7483 100.398C26.1043 100.398 26.9443 101.106 26.9443 102.51V106.77H25.5763V102.87C25.5403 101.898 25.1803 101.478 24.3643 101.478C23.4523 101.478 22.8643 102.198 22.8643 103.11V106.77H21.4963ZM34.3389 100.674L35.3709 100.086L36.1509 101.442L35.2269 101.97C34.8429 102.198 34.4349 102.354 34.0629 102.354C33.9789 102.354 33.9189 102.342 33.8349 102.33V106.77H32.4909V105.906H32.4669C32.1309 106.53 31.3869 106.938 30.7029 106.938C29.0709 106.938 28.3869 106.134 28.3869 104.502V100.566H29.7549V104.37C29.7549 105.462 30.1869 105.858 30.9429 105.858C32.0829 105.858 32.4669 105.126 32.4669 104.166V100.566H33.8349V101.67C34.0629 101.67 34.3389 101.574 34.7349 101.346L34.3389 100.674ZM42.5558 100.674L43.5878 100.086L44.3678 101.442L43.4438 101.97C43.0598 102.198 42.6518 102.354 42.2798 102.354C42.4238 102.75 42.4958 103.194 42.4958 103.662C42.4958 105.57 41.3438 106.938 39.3638 106.938C37.3838 106.938 36.2318 105.57 36.2318 103.662C36.2318 101.778 37.3838 100.398 39.3638 100.398C40.5278 100.398 41.4158 100.866 41.9318 101.67C42.2558 101.67 42.5318 101.574 42.9518 101.346L42.5558 100.674ZM39.3638 105.858C40.5878 105.858 41.1278 104.742 41.1278 103.662C41.1278 102.594 40.5878 101.478 39.3638 101.478C38.1398 101.478 37.5998 102.594 37.5998 103.662C37.5998 104.742 38.1398 105.858 39.3638 105.858ZM44.7346 106.77V100.566H46.0306V101.478L46.0546 101.502C46.4746 100.818 47.1706 100.398 47.9866 100.398C49.3426 100.398 50.1826 101.106 50.1826 102.51V106.77H48.8146V102.87C48.7786 101.898 48.4186 101.478 47.6026 101.478C46.6906 101.478 46.1026 102.198 46.1026 103.11V106.77H44.7346ZM57.3612 100.566V106.446C57.3612 108.318 56.2812 109.23 54.3132 109.23C53.0652 109.23 51.6732 108.75 51.5412 107.298H52.9092C53.0772 108.078 53.7012 108.21 54.3972 108.21C55.5012 108.21 55.9932 107.646 55.9932 106.626V105.678H55.9692C55.5852 106.362 54.8772 106.77 54.1092 106.77C52.1412 106.77 51.3252 105.282 51.3252 103.506C51.3252 101.838 52.3692 100.398 54.1332 100.398C54.9132 100.398 55.6212 100.71 55.9692 101.418H55.9932V100.566H57.3612ZM54.3252 105.69C55.5372 105.69 55.9932 104.598 55.9932 103.53C55.9932 102.462 55.5132 101.478 54.3252 101.478C53.1132 101.478 52.6932 102.606 52.6932 103.638C52.6932 104.646 53.1852 105.69 54.3252 105.69ZM61.4544 101.586V100.566H62.4864V98.706H63.8544V100.566H65.0904V101.586H63.8544V104.898C63.8544 105.462 63.9024 105.75 64.5144 105.75C64.7064 105.75 64.8984 105.75 65.0904 105.702V106.758C64.7904 106.794 64.5024 106.83 64.2024 106.83C62.7624 106.83 62.5224 106.278 62.4864 105.246V101.586H61.4544ZM66.0744 106.77V100.566H67.3584V101.766H67.3824C67.5384 101.106 68.3664 100.398 69.1944 100.398C69.5184 100.398 69.5784 100.422 69.7104 100.434V101.754C69.5184 101.718 69.3144 101.694 69.1224 101.694C68.1984 101.694 67.4424 102.438 67.4424 103.818V106.77H66.0744ZM71.6972 106.77H70.3292V100.566H71.6972V106.77ZM69.0332 97.986H70.6412L71.7332 99.702H70.7372L69.0332 97.986ZM73.1877 106.77V100.566H74.4837V101.478L74.5077 101.502C74.9277 100.818 75.6237 100.398 76.4397 100.398C77.7957 100.398 78.6357 101.106 78.6357 102.51V106.77H77.2677V102.87C77.2317 101.898 76.8717 101.478 76.0557 101.478C75.1437 101.478 74.5557 102.198 74.5557 103.11V106.77H73.1877ZM80.0784 106.77V98.202H81.4464V101.382H81.4704C81.8064 100.818 82.5144 100.398 83.3304 100.398C84.6864 100.398 85.5264 101.106 85.5264 102.51V106.77H84.1584V102.87C84.1224 101.898 83.7624 101.478 82.9464 101.478C82.0344 101.478 81.4464 102.198 81.4464 103.11V106.77H80.0784ZM90.3088 106.77V98.202H91.6768V101.382H91.7008C92.0368 100.818 92.7448 100.398 93.5608 100.398C94.9168 100.398 95.7568 101.106 95.7568 102.51V106.77H94.3888V102.87C94.3528 101.898 93.9928 101.478 93.1768 101.478C92.2648 101.478 91.6768 102.198 91.6768 103.11V106.77H90.3088ZM100.043 106.938C98.0634 106.938 96.9114 105.57 96.9114 103.662C96.9114 101.778 98.0634 100.398 100.043 100.398C102.023 100.398 103.175 101.778 103.175 103.662C103.175 105.57 102.023 106.938 100.043 106.938ZM100.043 105.858C101.267 105.858 101.807 104.742 101.807 103.662C101.807 102.594 101.267 101.478 100.043 101.478C98.8194 101.478 98.2794 102.594 98.2794 103.662C98.2794 104.742 98.8194 105.858 100.043 105.858ZM100.031 98.706L99.1914 99.786H98.0874L99.3714 98.07H100.703L101.999 99.786H100.883L100.031 98.706ZM101.495 96.054H102.167C102.107 96.438 101.999 96.786 101.771 97.026C101.567 97.278 101.267 97.434 100.835 97.434C100.559 97.434 100.247 97.338 99.9474 97.206C99.5754 97.05 99.4074 96.99 99.1314 96.99C98.8434 96.99 98.6754 97.158 98.6154 97.482H97.9314C98.0274 96.87 98.4474 96.126 99.1794 96.126C99.4794 96.126 99.6594 96.162 100.151 96.366C100.487 96.51 100.667 96.582 100.895 96.582C101.243 96.582 101.411 96.378 101.495 96.054ZM107.029 101.586V100.566H108.061V98.706H109.429V100.566H110.665V101.586H109.429V104.898C109.429 105.462 109.477 105.75 110.089 105.75C110.281 105.75 110.473 105.75 110.665 105.702V106.758C110.365 106.794 110.077 106.83 109.777 106.83C108.337 106.83 108.097 106.278 108.061 105.246V101.586H107.029ZM111.649 106.77V100.566H112.933V101.766H112.957C113.113 101.106 113.941 100.398 114.769 100.398C115.093 100.398 115.153 100.422 115.285 100.434V101.754C115.093 101.718 114.889 101.694 114.697 101.694C113.773 101.694 113.017 102.438 113.017 103.818V106.77H111.649ZM121.903 100.674L122.935 100.086L123.715 101.442L122.791 101.97C122.407 102.198 121.999 102.354 121.627 102.354C121.771 102.75 121.843 103.194 121.843 103.662C121.843 105.57 120.691 106.938 118.711 106.938C116.731 106.938 115.579 105.57 115.579 103.662C115.579 101.778 116.731 100.398 118.711 100.398C119.875 100.398 120.763 100.866 121.279 101.67C121.603 101.67 121.879 101.574 122.299 101.346L121.903 100.674ZM118.711 105.858C119.935 105.858 120.475 104.742 120.475 103.662C120.475 102.594 119.935 101.478 118.711 101.478C117.487 101.478 116.947 102.594 116.947 103.662C116.947 104.742 117.487 105.858 118.711 105.858ZM119.407 109.146H118.039V107.85H119.407V109.146ZM127.458 106.77V98.202H128.826V101.37H128.85C129.234 100.77 129.99 100.398 130.698 100.398C132.654 100.398 133.602 101.874 133.602 103.698C133.602 105.378 132.75 106.938 130.926 106.938C130.086 106.938 129.186 106.734 128.778 105.918H128.754V106.77H127.458ZM132.234 103.674C132.234 102.558 131.646 101.478 130.518 101.478C129.366 101.478 128.778 102.342 128.778 103.674C128.778 104.922 129.414 105.858 130.518 105.858C131.766 105.858 132.234 104.754 132.234 103.674ZM137.602 106.938C135.622 106.938 134.47 105.57 134.47 103.662C134.47 101.778 135.622 100.398 137.602 100.398C139.582 100.398 140.734 101.778 140.734 103.662C140.734 105.57 139.582 106.938 137.602 106.938ZM137.602 105.858C138.826 105.858 139.366 104.742 139.366 103.662C139.366 102.594 138.826 101.478 137.602 101.478C136.378 101.478 135.838 102.594 135.838 103.662C135.838 104.742 136.378 105.858 137.602 105.858ZM137.59 98.706L136.75 99.786H135.646L136.93 98.07H138.262L139.558 99.786H138.442L137.59 98.706ZM138.286 108.822H136.918V107.526H138.286V108.822ZM17.8811 121.77V115.566H19.1771V116.478L19.2011 116.502C19.6211 115.818 20.3171 115.398 21.1331 115.398C22.4891 115.398 23.3291 116.106 23.3291 117.51V121.77H21.9611V117.87C21.9251 116.898 21.5651 116.478 20.7491 116.478C19.8371 116.478 19.2491 117.198 19.2491 118.11V121.77H17.8811ZM30.5077 115.566V121.446C30.5077 123.318 29.4277 124.23 27.4597 124.23C26.2117 124.23 24.8197 123.75 24.6877 122.298H26.0557C26.2237 123.078 26.8477 123.21 27.5437 123.21C28.6477 123.21 29.1397 122.646 29.1397 121.626V120.678H29.1157C28.7317 121.362 28.0237 121.77 27.2557 121.77C25.2877 121.77 24.4717 120.282 24.4717 118.506C24.4717 116.838 25.5157 115.398 27.2797 115.398C28.0597 115.398 28.7677 115.71 29.1157 116.418H29.1397V115.566H30.5077ZM27.4717 120.69C28.6837 120.69 29.1397 119.598 29.1397 118.53C29.1397 117.462 28.6597 116.478 27.4717 116.478C26.2597 116.478 25.8397 117.606 25.8397 118.638C25.8397 119.646 26.3317 120.69 27.4717 120.69ZM37.081 117.198V120.39C37.081 120.726 37.153 120.858 37.405 120.858H37.549C37.609 120.858 37.669 120.846 37.741 120.834V121.782C37.537 121.854 37.105 121.938 36.877 121.938C36.313 121.938 35.929 121.746 35.821 121.182C35.281 121.71 34.405 121.938 33.673 121.938C32.557 121.938 31.549 121.338 31.549 120.126C31.549 118.578 32.785 118.326 33.937 118.194C34.933 118.002 35.797 118.134 35.797 117.318C35.797 116.598 35.053 116.478 34.513 116.478C33.745 116.478 33.205 116.79 33.145 117.462H31.777C31.873 115.866 33.217 115.398 34.597 115.398C35.809 115.398 37.081 115.89 37.081 117.198ZM35.713 119.682V118.662C35.293 118.938 34.645 118.926 34.033 119.034C33.445 119.13 32.917 119.346 32.917 120.066C32.917 120.69 33.697 120.858 34.177 120.858C34.777 120.858 35.713 120.546 35.713 119.682ZM32.713 112.986H34.321L35.413 114.702H34.417L32.713 112.986ZM38.553 121.77V115.566H39.849V116.478L39.873 116.502C40.293 115.818 40.989 115.398 41.805 115.398C43.161 115.398 44.001 116.106 44.001 117.51V121.77H42.633V117.87C42.597 116.898 42.237 116.478 41.421 116.478C40.509 116.478 39.921 117.198 39.921 118.11V121.77H38.553ZM45.4436 121.77V113.202H46.8116V116.382H46.8356C47.1716 115.818 47.8796 115.398 48.6956 115.398C50.0516 115.398 50.8916 116.106 50.8916 117.51V121.77H49.5236V117.87C49.4876 116.898 49.1276 116.478 48.3116 116.478C47.3996 116.478 46.8116 117.198 46.8116 118.11V121.77H45.4436ZM57.3181 121.77L55.0621 115.566H56.5501L58.1221 120.33H58.1461L59.6581 115.566H61.0741L58.8541 121.77H57.3181ZM67.0927 117.198V120.39C67.0927 120.726 67.1647 120.858 67.4167 120.858H67.5607C67.6207 120.858 67.6807 120.846 67.7527 120.834V121.782C67.5487 121.854 67.1167 121.938 66.8887 121.938C66.3247 121.938 65.9407 121.746 65.8327 121.182C65.2927 121.71 64.4167 121.938 63.6847 121.938C62.5687 121.938 61.5607 121.338 61.5607 120.126C61.5607 118.578 62.7967 118.326 63.9487 118.194C64.9447 118.002 65.8087 118.134 65.8087 117.318C65.8087 116.598 65.0647 116.478 64.5247 116.478C63.7567 116.478 63.2167 116.79 63.1567 117.462H61.7887C61.8847 115.866 63.2287 115.398 64.6087 115.398C65.8207 115.398 67.0927 115.89 67.0927 117.198ZM65.7247 119.682V118.662C65.3047 118.938 64.6567 118.926 64.0447 119.034C63.4567 119.13 62.9287 119.346 62.9287 120.066C62.9287 120.69 63.7087 120.858 64.1887 120.858C64.7887 120.858 65.7247 120.546 65.7247 119.682ZM62.7247 112.986H64.3327L65.4247 114.702H64.4287L62.7247 112.986ZM77.7485 114.762V121.77H76.4525V120.93H76.4285C76.0565 121.65 75.2885 121.938 74.5085 121.938C72.5525 121.938 71.6045 120.486 71.6045 118.626C71.6045 116.37 72.9365 115.398 74.2925 115.398C75.0605 115.398 75.9365 115.686 76.3565 116.37H76.3805V114.762H74.5445V113.982H76.3805V113.202H77.7485V113.982H78.6965V114.762H77.7485ZM72.9725 118.734C72.9725 119.802 73.5005 120.858 74.6885 120.858C75.9005 120.858 76.4285 119.742 76.4285 118.662C76.4285 117.282 75.7685 116.478 74.7125 116.478C73.4285 116.478 72.9725 117.63 72.9725 118.734ZM79.3819 114.498V113.202H80.7499V114.498H79.3819ZM79.3819 121.77V115.566H80.7499V121.77H79.3819ZM80.7619 123.654H79.3939V122.358H80.7619V123.654ZM87.4365 117.198V120.39C87.4365 120.726 87.5085 120.858 87.7605 120.858H87.9045C87.9645 120.858 88.0245 120.846 88.0965 120.834V121.782C87.8925 121.854 87.4605 121.938 87.2325 121.938C86.6685 121.938 86.2845 121.746 86.1765 121.182C85.6365 121.71 84.7605 121.938 84.0285 121.938C82.9125 121.938 81.9045 121.338 81.9045 120.126C81.9045 118.578 83.1405 118.326 84.2925 118.194C85.2885 118.002 86.1525 118.134 86.1525 117.318C86.1525 116.598 85.4085 116.478 84.8685 116.478C84.1005 116.478 83.5605 116.79 83.5005 117.462H82.1325C82.2285 115.866 83.5725 115.398 84.9525 115.398C86.1645 115.398 87.4365 115.89 87.4365 117.198ZM86.0685 119.682V118.662C85.6485 118.938 85.0005 118.926 84.3885 119.034C83.8005 119.13 83.2725 119.346 83.2725 120.066C83.2725 120.69 84.0525 120.858 84.5325 120.858C85.1325 120.858 86.0685 120.546 86.0685 119.682ZM92.2843 124.062V115.566H93.5803V116.406H93.6043C93.9883 115.686 94.7203 115.398 95.5243 115.398C97.4803 115.398 98.4283 116.874 98.4283 118.698C98.4283 120.378 97.5763 121.938 95.7523 121.938C94.9603 121.938 94.0963 121.65 93.6763 120.966H93.6523V124.062H92.2843ZM97.0603 118.674C97.0603 117.558 96.4723 116.478 95.3443 116.478C94.1923 116.478 93.6043 117.342 93.6043 118.674C93.6043 119.922 94.2403 120.858 95.3443 120.858C96.5923 120.858 97.0603 119.754 97.0603 118.674ZM99.5842 121.77V113.202H100.952V116.382H100.976C101.312 115.818 102.02 115.398 102.836 115.398C104.192 115.398 105.032 116.106 105.032 117.51V121.77H103.664V117.87C103.628 116.898 103.268 116.478 102.452 116.478C101.54 116.478 100.952 117.198 100.952 118.11V121.77H99.5842ZM112.427 115.674L113.459 115.086L114.239 116.442L113.315 116.97C112.931 117.198 112.523 117.354 112.151 117.354C112.067 117.354 112.007 117.342 111.923 117.33V121.77H110.579V120.906H110.555C110.219 121.53 109.475 121.938 108.791 121.938C107.159 121.938 106.475 121.134 106.475 119.502V115.566H107.843V119.37C107.843 120.462 108.275 120.858 109.031 120.858C110.171 120.858 110.555 120.126 110.555 119.166V115.566H111.923V116.67C112.151 116.67 112.427 116.574 112.823 116.346L112.427 115.674ZM120.644 115.674L121.676 115.086L122.456 116.442L121.532 116.97C121.148 117.198 120.74 117.354 120.368 117.354C120.512 117.75 120.584 118.194 120.584 118.662C120.584 120.57 119.432 121.938 117.452 121.938C115.472 121.938 114.32 120.57 114.32 118.662C114.32 116.778 115.472 115.398 117.452 115.398C118.616 115.398 119.504 115.866 120.02 116.67C120.344 116.67 120.62 116.574 121.04 116.346L120.644 115.674ZM117.452 120.858C118.676 120.858 119.216 119.742 119.216 118.662C119.216 117.594 118.676 116.478 117.452 116.478C116.228 116.478 115.688 117.594 115.688 118.662C115.688 119.742 116.228 120.858 117.452 120.858ZM122.822 121.77V115.566H124.118V116.478L124.142 116.502C124.562 115.818 125.258 115.398 126.074 115.398C127.43 115.398 128.27 116.106 128.27 117.51V121.77H126.902V117.87C126.866 116.898 126.506 116.478 125.69 116.478C124.778 116.478 124.19 117.198 124.19 118.11V121.77H122.822ZM135.449 115.566V121.446C135.449 123.318 134.369 124.23 132.401 124.23C131.153 124.23 129.761 123.75 129.629 122.298H130.997C131.165 123.078 131.789 123.21 132.485 123.21C133.589 123.21 134.081 122.646 134.081 121.626V120.678H134.057C133.673 121.362 132.965 121.77 132.197 121.77C130.229 121.77 129.413 120.282 129.413 118.506C129.413 116.838 130.457 115.398 132.221 115.398C133.001 115.398 133.709 115.71 134.057 116.418H134.081V115.566H135.449ZM132.413 120.69C133.625 120.69 134.081 119.598 134.081 118.53C134.081 117.462 133.601 116.478 132.413 116.478C131.201 116.478 130.781 117.606 130.781 118.638C130.781 119.646 131.273 120.69 132.413 120.69Z" fill="#FFFDFD"/>
<path fill-rule="evenodd" clip-rule="evenodd" d="M76.0804 19.6744C75.7115 19.7899 75.2635 20.185 75.0903 20.5476L74.9499 20.8415L74.9493 24.2675L74.9487 27.6934L67.094 27.7091L59.2393 27.7247L58.9265 27.8625C58.5726 28.0185 58.1848 28.3962 58.0388 28.727C57.9443 28.9412 57.9015 29.4586 57.9479 29.8247C57.9644 29.9545 57.0875 32.0713 54.5502 38.0269C51.2453 45.7841 51.1302 46.0667 51.1304 46.4268C51.131 47.7306 51.5582 49.2572 52.2469 50.416C54.8326 54.7671 60.6504 55.9248 64.7658 52.907C66.0559 51.961 67.1687 50.4535 67.6797 48.9599C68.0183 47.9702 68.2176 46.4306 68.0657 45.9789C68.0233 45.8526 66.6024 42.4944 64.9083 38.5162C63.2141 34.5379 61.8146 31.2371 61.7983 31.1809C61.7703 31.0841 62.1112 31.0788 68.3588 31.0788H74.949L74.9339 47.1056L74.9188 63.1324L69.3831 63.1616C63.2635 63.1938 63.6691 63.1669 63.1958 63.5719C63.0727 63.6773 62.9001 63.8971 62.8123 64.0605C62.6787 64.3093 62.6526 64.433 62.6516 64.824C62.6506 65.2335 62.6723 65.329 62.8281 65.6033C62.9258 65.7752 63.1107 66.0035 63.239 66.1106C63.7252 66.5161 62.6654 66.4865 76.6853 66.4865H89.3524L89.7257 66.3047C90.3293 66.0107 90.642 65.5054 90.642 64.824C90.642 64.1774 90.3413 63.6653 89.7858 63.3657L89.4613 63.1907L83.9256 63.1616L78.3899 63.1324L78.3748 47.1056L78.3597 31.0788H84.9492C90.1967 31.0788 91.5328 31.0937 91.5093 31.1517C91.4932 31.1919 90.0598 34.5583 88.3242 38.6328L85.1684 46.041L85.203 46.7994C85.372 50.5112 88.1432 53.6274 92.0047 54.4482C92.7217 54.6006 94.572 54.6029 95.2888 54.4522C97.0512 54.0818 98.4053 53.3713 99.639 52.1694C101.223 50.6268 102.118 48.617 102.133 46.5703L102.137 45.9827L98.7394 38.0204L95.3414 30.058L95.3338 29.4455C95.3269 28.8906 95.3108 28.8075 95.1628 28.5621C94.9689 28.2408 94.7076 28.0139 94.3387 27.8467C94.0704 27.7251 94.0419 27.7246 86.2165 27.7091L78.3636 27.6934L78.3468 24.2383L78.33 20.7832L78.1532 20.4721C77.8456 19.9307 77.3719 19.6404 76.7441 19.6083C76.5098 19.5963 76.2458 19.6226 76.0804 19.6744ZM96.3098 38.9181C97.7272 42.2483 98.887 44.9967 98.887 45.0258C98.887 45.0569 96.7322 45.0786 93.6441 45.0786C88.6759 45.0786 88.4032 45.0732 88.4401 44.9765C88.8363 43.9391 93.6624 32.7412 93.6915 32.792C93.7141 32.8312 94.8923 35.588 96.3098 38.9181ZM62.2465 38.8531C63.6701 42.1984 64.8348 44.9677 64.8348 45.007C64.8348 45.063 63.701 45.0786 59.6318 45.0786C56.7701 45.0786 54.4184 45.0589 54.4057 45.0348C54.3787 44.9837 59.5767 32.7704 59.6253 32.7706C59.6434 32.7706 60.8229 35.5077 62.2465 38.8531Z" fill="#FFFDFD"/>
</svg>
