<svg width="155" height="156" viewBox="0 0 155 156" fill="none" xmlns="http://www.w3.org/2000/svg">
<rect width="154.265" height="155.509" fill="#0280CD"/>
<path d="M17.3578 102.157V100.861H24.2938V102.157H21.5698V109.429H20.0698V102.157H17.3578ZM25.0951 109.429V100.861H26.4631V104.041H26.4871C26.8231 103.477 27.5311 103.057 28.3471 103.057C29.7031 103.057 30.5431 103.765 30.5431 105.169V109.429H29.1751V105.529C29.1391 104.557 28.7791 104.137 27.9631 104.137C27.0511 104.137 26.4631 104.857 26.4631 105.769V109.429H25.0951ZM37.9377 103.333L38.9697 102.745L39.7497 104.101L38.8257 104.629C38.4417 104.857 38.0337 105.013 37.6617 105.013C37.5777 105.013 37.5177 105.001 37.4337 104.989V109.429H36.0897V108.565H36.0657C35.7297 109.189 34.9857 109.597 34.3017 109.597C32.6697 109.597 31.9857 108.793 31.9857 107.161V103.225H33.3537V107.029C33.3537 108.121 33.7857 108.517 34.5417 108.517C35.6817 108.517 36.0657 107.785 36.0657 106.825V103.225H37.4337V104.329C37.6617 104.329 37.9377 104.233 38.3337 104.005L37.9377 103.333ZM45.1024 109.429L42.8464 103.225H44.3344L45.9064 107.989H45.9304L47.4424 103.225H48.8584L46.6384 109.429H45.1024ZM49.717 102.157V100.861H51.085V102.157H49.717ZM49.717 109.429V103.225H51.085V109.429H49.717ZM53.6436 105.781H56.8356C56.7756 104.917 56.2116 104.137 55.2756 104.137C54.3276 104.137 53.6796 104.857 53.6436 105.781ZM58.2036 106.681H53.6436C53.6436 107.653 54.1716 108.517 55.3116 108.517C56.1156 108.517 56.5836 108.169 56.8236 107.485H58.1196C57.8316 108.841 56.6556 109.597 55.3116 109.597C53.3556 109.597 52.2756 108.253 52.2756 106.333C52.2756 104.569 53.4276 103.057 55.2756 103.057C57.2316 103.057 58.4316 104.821 58.2036 106.681ZM55.2636 101.365L54.4236 102.445H53.3196L54.6036 100.729H55.9356L57.2316 102.445H56.1156L55.2636 101.365ZM55.9596 111.481H54.5916V110.185H55.9596V111.481ZM59.2435 109.429V103.225H60.5395V104.137L60.5635 104.161C60.9835 103.477 61.6795 103.057 62.4955 103.057C63.8515 103.057 64.6915 103.765 64.6915 105.169V109.429H63.3235V105.529C63.2875 104.557 62.9275 104.137 62.1115 104.137C61.1995 104.137 60.6115 104.857 60.6115 105.769V109.429H59.2435ZM69.51 109.429V100.861H70.878V104.029H70.902C71.286 103.429 72.042 103.057 72.75 103.057C74.706 103.057 75.654 104.533 75.654 106.357C75.654 108.037 74.802 109.597 72.978 109.597C72.138 109.597 71.238 109.393 70.83 108.577H70.806V109.429H69.51ZM74.286 106.333C74.286 105.217 73.698 104.137 72.57 104.137C71.418 104.137 70.83 105.001 70.83 106.333C70.83 107.581 71.466 108.517 72.57 108.517C73.818 108.517 74.286 107.413 74.286 106.333ZM82.0059 104.857V108.049C82.0059 108.385 82.0779 108.517 82.3299 108.517H82.4739C82.5339 108.517 82.5939 108.505 82.6659 108.493V109.441C82.4619 109.513 82.0299 109.597 81.8019 109.597C81.2379 109.597 80.8539 109.405 80.7459 108.841C80.2059 109.369 79.3299 109.597 78.5979 109.597C77.4819 109.597 76.4739 108.997 76.4739 107.785C76.4739 106.237 77.7099 105.985 78.8619 105.853C79.8579 105.661 80.7219 105.793 80.7219 104.977C80.7219 104.257 79.9779 104.137 79.4379 104.137C78.6699 104.137 78.1299 104.449 78.0699 105.121H76.7019C76.7979 103.525 78.1419 103.057 79.5219 103.057C80.7339 103.057 82.0059 103.549 82.0059 104.857ZM80.6379 107.341V106.321C80.2179 106.597 79.5699 106.585 78.9579 106.693C78.3699 106.789 77.8419 107.005 77.8419 107.725C77.8419 108.349 78.6219 108.517 79.1019 108.517C79.7019 108.517 80.6379 108.205 80.6379 107.341ZM78.8139 100.597L78.7899 100.009C79.0059 99.985 79.1859 99.973 79.3419 99.973C79.8339 99.973 80.5899 100.201 80.5899 100.969C80.5899 101.305 80.4219 101.665 79.7619 101.809L79.7379 102.073H79.0779V101.557C79.6899 101.509 79.8339 101.257 79.8339 101.053C79.8339 100.681 79.6659 100.549 79.2339 100.549C79.0779 100.549 78.9459 100.561 78.8139 100.597ZM83.4779 109.429V103.225H84.7739V104.137L84.7979 104.161C85.2179 103.477 85.9139 103.057 86.7299 103.057C88.0859 103.057 88.9259 103.765 88.9259 105.169V109.429H87.5579V105.529C87.5219 104.557 87.1619 104.137 86.3459 104.137C85.4339 104.137 84.8459 104.857 84.8459 105.769V109.429H83.4779ZM98.9044 104.857V108.049C98.9044 108.385 98.9764 108.517 99.2284 108.517H99.3724C99.4324 108.517 99.4924 108.505 99.5644 108.493V109.441C99.3604 109.513 98.9284 109.597 98.7004 109.597C98.1364 109.597 97.7524 109.405 97.6444 108.841C97.1044 109.369 96.2284 109.597 95.4964 109.597C94.3804 109.597 93.3724 108.997 93.3724 107.785C93.3724 106.237 94.6084 105.985 95.7604 105.853C96.7564 105.661 97.6204 105.793 97.6204 104.977C97.6204 104.257 96.8764 104.137 96.3364 104.137C95.5684 104.137 95.0284 104.449 94.9684 105.121H93.6004C93.6964 103.525 95.0404 103.057 96.4204 103.057C97.6324 103.057 98.9044 103.549 98.9044 104.857ZM97.5364 107.341V106.321C97.1164 106.597 96.4684 106.585 95.8564 106.693C95.2684 106.789 94.7404 107.005 94.7404 107.725C94.7404 108.349 95.5204 108.517 96.0004 108.517C96.6004 108.517 97.5364 108.205 97.5364 107.341ZM95.6764 102.361L96.7564 100.645H98.3764L96.6724 102.361H95.6764ZM100.376 109.429V103.225H101.672V104.137L101.696 104.161C102.116 103.477 102.812 103.057 103.628 103.057C104.984 103.057 105.824 103.765 105.824 105.169V109.429H104.456V105.529C104.42 104.557 104.06 104.137 103.244 104.137C102.332 104.137 101.744 104.857 101.744 105.769V109.429H100.376ZM110.643 109.429V100.861H112.011V105.733L114.483 103.225H116.163L113.787 105.505L116.391 109.429H114.723L112.827 106.417L112.011 107.209V109.429H110.643ZM117.088 102.157V100.861H118.456V102.157H117.088ZM117.088 109.429V103.225H118.456V109.429H117.088ZM119.947 109.429V103.225H121.243V104.137L121.267 104.161C121.687 103.477 122.383 103.057 123.199 103.057C124.555 103.057 125.395 103.765 125.395 105.169V109.429H124.027V105.529C123.991 104.557 123.631 104.137 122.815 104.137C121.903 104.137 121.315 104.857 121.315 105.769V109.429H119.947ZM126.837 109.429V100.861H128.205V104.041H128.229C128.565 103.477 129.273 103.057 130.089 103.057C131.445 103.057 132.285 103.765 132.285 105.169V109.429H130.917V105.529C130.881 104.557 130.521 104.137 129.705 104.137C128.793 104.137 128.205 104.857 128.205 105.769V109.429H126.837ZM30.2887 115.861V124.429H28.9927V123.589H28.9687C28.5967 124.309 27.8287 124.597 27.0487 124.597C25.0927 124.597 24.1447 123.145 24.1447 121.285C24.1447 119.029 25.4767 118.057 26.8327 118.057C27.6007 118.057 28.4767 118.345 28.8967 119.029H28.9207V115.861H30.2887ZM25.5127 121.393C25.5127 122.461 26.0407 123.517 27.2287 123.517C28.4407 123.517 28.9687 122.401 28.9687 121.321C28.9687 119.941 28.3087 119.137 27.2527 119.137C25.9687 119.137 25.5127 120.289 25.5127 121.393ZM34.6246 124.597C32.6446 124.597 31.4926 123.229 31.4926 121.321C31.4926 119.437 32.6446 118.057 34.6246 118.057C36.6046 118.057 37.7566 119.437 37.7566 121.321C37.7566 123.229 36.6046 124.597 34.6246 124.597ZM34.6246 123.517C35.8486 123.517 36.3886 122.401 36.3886 121.321C36.3886 120.253 35.8486 119.137 34.6246 119.137C33.4006 119.137 32.8606 120.253 32.8606 121.321C32.8606 122.401 33.4006 123.517 34.6246 123.517ZM44.0899 119.857V123.049C44.0899 123.385 44.1619 123.517 44.4139 123.517H44.5579C44.6179 123.517 44.6779 123.505 44.7499 123.493V124.441C44.5459 124.513 44.1139 124.597 43.8859 124.597C43.3219 124.597 42.9379 124.405 42.8299 123.841C42.2899 124.369 41.4139 124.597 40.6819 124.597C39.5659 124.597 38.5579 123.997 38.5579 122.785C38.5579 121.237 39.7939 120.985 40.9459 120.853C41.9419 120.661 42.8059 120.793 42.8059 119.977C42.8059 119.257 42.0619 119.137 41.5219 119.137C40.7539 119.137 40.2139 119.449 40.1539 120.121H38.7859C38.8819 118.525 40.2259 118.057 41.6059 118.057C42.8179 118.057 44.0899 118.549 44.0899 119.857ZM42.7219 122.341V121.321C42.3019 121.597 41.6539 121.585 41.0419 121.693C40.4539 121.789 39.9259 122.005 39.9259 122.725C39.9259 123.349 40.7059 123.517 41.1859 123.517C41.7859 123.517 42.7219 123.205 42.7219 122.341ZM45.5619 124.429V118.225H46.8579V119.137L46.8819 119.161C47.3019 118.477 47.9979 118.057 48.8139 118.057C50.1699 118.057 51.0099 118.765 51.0099 120.169V124.429H49.6419V120.529C49.6059 119.557 49.2459 119.137 48.4299 119.137C47.5179 119.137 46.9299 119.857 46.9299 120.769V124.429H45.5619ZM52.4525 124.429V115.861H53.8205V119.041H53.8445C54.1805 118.477 54.8885 118.057 55.7045 118.057C57.0605 118.057 57.9005 118.765 57.9005 120.169V124.429H56.5325V120.529C56.4965 119.557 56.1365 119.137 55.3205 119.137C54.4085 119.137 53.8205 119.857 53.8205 120.769V124.429H52.4525ZM62.059 119.245V118.225H63.091V116.365H64.459V118.225H65.695V119.245H64.459V122.557C64.459 123.121 64.507 123.409 65.119 123.409C65.311 123.409 65.503 123.409 65.695 123.361V124.417C65.395 124.453 65.107 124.489 64.807 124.489C63.367 124.489 63.127 123.937 63.091 122.905V119.245H62.059ZM66.6791 124.429V115.861H68.0471V119.041H68.0711C68.4071 118.477 69.1151 118.057 69.9311 118.057C71.2871 118.057 72.1271 118.765 72.1271 120.169V124.429H70.7591V120.529C70.7231 119.557 70.3631 119.137 69.5471 119.137C68.6351 119.137 68.0471 119.857 68.0471 120.769V124.429H66.6791ZM79.5217 118.333L80.5537 117.745L81.3337 119.101L80.4097 119.629C80.0257 119.857 79.6177 120.013 79.2457 120.013C79.1617 120.013 79.1017 120.001 79.0177 119.989V124.429H77.6737V123.565H77.6497C77.3137 124.189 76.5697 124.597 75.8857 124.597C74.2537 124.597 73.5697 123.793 73.5697 122.161V118.225H74.9377V122.029C74.9377 123.121 75.3697 123.517 76.1257 123.517C77.2657 123.517 77.6497 122.785 77.6497 121.825V118.225H79.0177V119.329C79.2457 119.329 79.5217 119.233 79.9177 119.005L79.5217 118.333ZM87.7385 118.333L88.7705 117.745L89.5505 119.101L88.6265 119.629C88.2425 119.857 87.8345 120.013 87.4625 120.013C87.6065 120.409 87.6785 120.853 87.6785 121.321C87.6785 123.229 86.5265 124.597 84.5465 124.597C82.5665 124.597 81.4145 123.229 81.4145 121.321C81.4145 119.437 82.5665 118.057 84.5465 118.057C85.7105 118.057 86.5985 118.525 87.1145 119.329C87.4385 119.329 87.7145 119.233 88.1345 119.005L87.7385 118.333ZM84.5465 123.517C85.7705 123.517 86.3105 122.401 86.3105 121.321C86.3105 120.253 85.7705 119.137 84.5465 119.137C83.3225 119.137 82.7825 120.253 82.7825 121.321C82.7825 122.401 83.3225 123.517 84.5465 123.517ZM89.9173 124.429V118.225H91.2133V119.137L91.2373 119.161C91.6573 118.477 92.3533 118.057 93.1693 118.057C94.5253 118.057 95.3653 118.765 95.3653 120.169V124.429H93.9973V120.529C93.9613 119.557 93.6013 119.137 92.7853 119.137C91.8733 119.137 91.2853 119.857 91.2853 120.769V124.429H89.9173ZM102.544 118.225V124.105C102.544 125.977 101.464 126.889 99.496 126.889C98.248 126.889 96.856 126.409 96.724 124.957H98.092C98.26 125.737 98.884 125.869 99.58 125.869C100.684 125.869 101.176 125.305 101.176 124.285V123.337H101.152C100.768 124.021 100.06 124.429 99.292 124.429C97.324 124.429 96.508 122.941 96.508 121.165C96.508 119.497 97.552 118.057 99.316 118.057C100.096 118.057 100.804 118.369 101.152 119.077H101.176V118.225H102.544ZM99.508 123.349C100.72 123.349 101.176 122.257 101.176 121.189C101.176 120.121 100.696 119.137 99.508 119.137C98.296 119.137 97.876 120.265 97.876 121.297C97.876 122.305 98.368 123.349 99.508 123.349ZM107.261 124.429V118.225H108.557V119.089H108.593C109.013 118.477 109.505 118.057 110.501 118.057C111.257 118.057 111.965 118.381 112.241 119.089C112.709 118.453 113.273 118.057 114.185 118.057C115.493 118.057 116.261 118.645 116.261 120.145V124.429H114.893V120.805C114.893 119.809 114.833 119.137 113.765 119.137C112.841 119.137 112.445 119.737 112.445 120.793V124.429H111.077V120.445C111.077 119.581 110.813 119.137 109.985 119.137C109.277 119.137 108.629 119.725 108.629 120.745V124.429H107.261ZM122.899 119.857V123.049C122.899 123.385 122.971 123.517 123.223 123.517H123.367C123.427 123.517 123.487 123.505 123.559 123.493V124.441C123.355 124.513 122.923 124.597 122.695 124.597C122.131 124.597 121.747 124.405 121.639 123.841C121.099 124.369 120.223 124.597 119.491 124.597C118.375 124.597 117.367 123.997 117.367 122.785C117.367 121.237 118.603 120.985 119.755 120.853C120.751 120.661 121.615 120.793 121.615 119.977C121.615 119.257 120.871 119.137 120.331 119.137C119.563 119.137 119.023 119.449 118.963 120.121H117.595C117.691 118.525 119.035 118.057 120.415 118.057C121.627 118.057 122.899 118.549 122.899 119.857ZM121.531 122.341V121.321C121.111 121.597 120.463 121.585 119.851 121.693C119.263 121.789 118.735 122.005 118.735 122.725C118.735 123.349 119.515 123.517 119.995 123.517C120.595 123.517 121.531 123.205 121.531 122.341ZM121.147 126.481H119.779V125.185H121.147V126.481ZM124.406 117.157V115.861H125.774V117.157H124.406ZM124.406 124.429V118.225H125.774V124.429H124.406Z" fill="#FFFDFD"/>
<path fill-rule="evenodd" clip-rule="evenodd" d="M72.2719 23.0847C72.1722 23.1322 72.0401 23.2501 71.9783 23.3466C71.8685 23.5184 71.8662 23.6117 71.8662 27.9607V32.3993H77.3472H82.8283L82.8134 27.9181L82.7984 23.4369L82.6586 23.2923C82.3573 22.9806 82.6293 22.9957 77.3351 22.9971C72.9758 22.9982 72.4339 23.0076 72.2719 23.0847ZM58.7977 29.3167C58.4008 29.5506 58.4193 29.3512 58.4021 33.5747L58.3867 37.3713H63.8962H69.4057V33.5739C69.4057 29.9994 69.3997 29.7657 69.3035 29.5924C69.2473 29.4911 69.1156 29.3638 69.0108 29.3095C68.8304 29.216 68.5586 29.2108 63.8985 29.211C59.1156 29.2112 58.9717 29.2142 58.7977 29.3167ZM85.6343 29.3264C85.5332 29.3889 85.4136 29.5089 85.3687 29.593C85.2973 29.7262 85.2868 32.1184 85.2868 48.2582V66.7706H84.0566H82.8264V50.7739V34.7772H77.3463H71.8662V50.7739V66.7706H70.6359H69.4057V53.2326V39.6946L63.9116 39.7083L58.4175 39.7221L58.4034 53.2441L58.3893 66.766L56.1667 66.7818C54.0277 66.7971 53.9342 66.802 53.6836 66.914C53.1369 67.1582 52.7417 67.7557 52.7417 68.3379C52.7417 68.9201 53.1369 69.5176 53.6836 69.7618L53.944 69.8781H77.6299H101.316L101.646 69.715C102.239 69.422 102.545 68.8846 102.5 68.2184C102.461 67.6374 102.166 67.2121 101.6 66.9196C101.366 66.7988 101.338 66.7975 98.8054 66.7821L96.2471 66.7665L96.2467 48.2454C96.2463 30.1928 96.2437 29.7203 96.1409 29.5697C96.083 29.4847 95.9636 29.3693 95.8757 29.3133C95.7221 29.2155 95.5216 29.2115 90.767 29.212C85.8318 29.2126 85.8176 29.2129 85.6343 29.3264ZM92.4883 34.9152C93.4452 35.3015 93.474 36.6027 92.535 37.0253C92.2562 37.1507 92.2108 37.154 90.767 37.154C89.3231 37.154 89.2778 37.1507 88.999 37.0253C88.0762 36.6101 88.0802 35.3477 89.0055 34.9337C89.2057 34.8441 89.3892 34.8335 90.7548 34.8324C92.0096 34.8315 92.3173 34.8462 92.4883 34.9152ZM92.3655 39.9367C92.8477 40.0751 93.2274 40.5638 93.2274 41.0462C93.2274 41.3414 93.0971 41.6251 92.8482 41.872C92.5213 42.1962 92.298 42.2351 90.767 42.2351C89.2359 42.2351 89.0126 42.1962 88.6857 41.872C88.1741 41.3646 88.1847 40.6756 88.7115 40.1914C89.0302 39.8987 89.238 39.8649 90.7428 39.8609C91.7729 39.8581 92.1537 39.8759 92.3655 39.9367Z" fill="#FFFDFD"/>
</svg>
