<svg width="155" height="155" viewBox="0 0 155 155" fill="none" xmlns="http://www.w3.org/2000/svg">
<rect width="154.265" height="154.265" fill="#0280CD"/>
<path d="M17.6269 108.014L14.7709 99.4462H16.3309L18.4789 106.226H18.5029L20.6989 99.4462H22.2229L19.2949 108.014H17.6269ZM27.4266 103.442V106.634C27.4266 106.97 27.4986 107.102 27.7506 107.102H27.8946C27.9546 107.102 28.0146 107.09 28.0866 107.078V108.026C27.8826 108.098 27.4506 108.182 27.2226 108.182C26.6586 108.182 26.2746 107.99 26.1666 107.426C25.6266 107.954 24.7506 108.182 24.0186 108.182C22.9026 108.182 21.8946 107.582 21.8946 106.37C21.8946 104.822 23.1306 104.57 24.2826 104.438C25.2786 104.246 26.1426 104.378 26.1426 103.562C26.1426 102.842 25.3986 102.722 24.8586 102.722C24.0906 102.722 23.5506 103.034 23.4906 103.706H22.1226C22.2186 102.11 23.5626 101.642 24.9426 101.642C26.1546 101.642 27.4266 102.134 27.4266 103.442ZM26.0586 105.926V104.906C25.6386 105.182 24.9906 105.17 24.3786 105.278C23.7906 105.374 23.2626 105.59 23.2626 106.31C23.2626 106.934 24.0426 107.102 24.5226 107.102C25.1226 107.102 26.0586 106.79 26.0586 105.926ZM22.9386 99.2422H23.6346C23.7666 99.9142 24.2826 100.154 24.9186 100.154C25.5306 100.154 25.9986 99.8542 26.1306 99.2422H26.8146C26.6826 100.382 25.9266 100.934 24.8226 100.934C23.7186 100.934 23.0346 100.346 22.9386 99.2422ZM28.8986 108.014V101.81H30.1946V102.722L30.2186 102.746C30.6386 102.062 31.3346 101.642 32.1506 101.642C33.5066 101.642 34.3466 102.35 34.3466 103.754V108.014H32.9786V104.114C32.9426 103.142 32.5826 102.722 31.7666 102.722C30.8546 102.722 30.2666 103.442 30.2666 104.354V108.014H28.8986ZM39.1651 108.014V99.4462H40.5331V102.614H40.5571C40.9411 102.014 41.6971 101.642 42.4051 101.642C44.3611 101.642 45.3091 103.118 45.3091 104.942C45.3091 106.622 44.4571 108.182 42.6331 108.182C41.7931 108.182 40.8931 107.978 40.4851 107.162H40.4611V108.014H39.1651ZM43.9411 104.918C43.9411 103.802 43.3531 102.722 42.2251 102.722C41.0731 102.722 40.4851 103.586 40.4851 104.918C40.4851 106.166 41.1211 107.102 42.2251 107.102C43.4731 107.102 43.9411 105.998 43.9411 104.918ZM51.661 103.442V106.634C51.661 106.97 51.733 107.102 51.985 107.102H52.129C52.189 107.102 52.249 107.09 52.321 107.078V108.026C52.117 108.098 51.685 108.182 51.457 108.182C50.893 108.182 50.509 107.99 50.401 107.426C49.861 107.954 48.985 108.182 48.253 108.182C47.137 108.182 46.129 107.582 46.129 106.37C46.129 104.822 47.365 104.57 48.517 104.438C49.513 104.246 50.377 104.378 50.377 103.562C50.377 102.842 49.633 102.722 49.093 102.722C48.325 102.722 47.785 103.034 47.725 103.706H46.357C46.453 102.11 47.797 101.642 49.177 101.642C50.389 101.642 51.661 102.134 51.661 103.442ZM50.293 105.926V104.906C49.873 105.182 49.225 105.17 48.613 105.278C48.025 105.374 47.497 105.59 47.497 106.31C47.497 106.934 48.277 107.102 48.757 107.102C49.357 107.102 50.293 106.79 50.293 105.926ZM48.469 99.1822L48.445 98.5942C48.661 98.5702 48.841 98.5582 48.997 98.5582C49.489 98.5582 50.245 98.7862 50.245 99.5542C50.245 99.8902 50.077 100.25 49.417 100.394L49.393 100.658H48.733V100.142C49.345 100.094 49.489 99.8422 49.489 99.6382C49.489 99.2662 49.321 99.1342 48.889 99.1342C48.733 99.1342 48.601 99.1462 48.469 99.1822ZM53.133 108.014V101.81H54.429V102.722L54.453 102.746C54.873 102.062 55.569 101.642 56.385 101.642C57.741 101.642 58.581 102.35 58.581 103.754V108.014H57.213V104.114C57.177 103.142 56.817 102.722 56.001 102.722C55.089 102.722 54.501 103.442 54.501 104.354V108.014H53.133ZM62.7394 102.83V101.81H63.7714V99.9502H65.1394V101.81H66.3754V102.83H65.1394V106.142C65.1394 106.706 65.1874 106.994 65.7994 106.994C65.9914 106.994 66.1834 106.994 66.3754 106.946V108.002C66.0754 108.038 65.7874 108.074 65.4874 108.074C64.0474 108.074 63.8074 107.522 63.7714 106.49V102.83H62.7394ZM67.3595 108.014V101.81H68.6435V103.01H68.6675C68.8235 102.35 69.6515 101.642 70.4795 101.642C70.8035 101.642 70.8635 101.666 70.9955 101.678V102.998C70.8035 102.962 70.5995 102.938 70.4075 102.938C69.4835 102.938 68.7275 103.682 68.7275 105.062V108.014H67.3595ZM76.7743 103.442V106.634C76.7743 106.97 76.8463 107.102 77.0983 107.102H77.2423C77.3023 107.102 77.3623 107.09 77.4343 107.078V108.026C77.2303 108.098 76.7983 108.182 76.5703 108.182C76.0063 108.182 75.6223 107.99 75.5143 107.426C74.9743 107.954 74.0983 108.182 73.3663 108.182C72.2503 108.182 71.2423 107.582 71.2423 106.37C71.2423 104.822 72.4783 104.57 73.6303 104.438C74.6263 104.246 75.4903 104.378 75.4903 103.562C75.4903 102.842 74.7463 102.722 74.2063 102.722C73.4383 102.722 72.8983 103.034 72.8383 103.706H71.4703C71.5663 102.11 72.9103 101.642 74.2903 101.642C75.5023 101.642 76.7743 102.134 76.7743 103.442ZM75.4063 105.926V104.906C74.9863 105.182 74.3383 105.17 73.7263 105.278C73.1383 105.374 72.6103 105.59 72.6103 106.31C72.6103 106.934 73.3903 107.102 73.8703 107.102C74.4703 107.102 75.4063 106.79 75.4063 105.926ZM73.5823 99.1822L73.5583 98.5942C73.7743 98.5702 73.9543 98.5582 74.1103 98.5582C74.6023 98.5582 75.3583 98.7862 75.3583 99.5542C75.3583 99.8902 75.1903 100.25 74.5303 100.394L74.5063 100.658H73.8463V100.142C74.4583 100.094 74.6023 99.8422 74.6023 99.6382C74.6023 99.2662 74.4343 99.1342 74.0023 99.1342C73.8463 99.1342 73.7143 99.1462 73.5823 99.1822ZM81.6221 108.014V99.4462H82.9901V108.014H81.6221ZM90.5166 101.918L91.5486 101.33L92.3286 102.686L91.4046 103.214C91.0206 103.442 90.6126 103.598 90.2406 103.598C90.3846 103.994 90.4566 104.438 90.4566 104.906C90.4566 106.814 89.3046 108.182 87.3246 108.182C85.3446 108.182 84.1926 106.814 84.1926 104.906C84.1926 103.022 85.3446 101.642 87.3246 101.642C88.4886 101.642 89.3766 102.11 89.8926 102.914C90.2166 102.914 90.4926 102.818 90.9126 102.59L90.5166 101.918ZM87.3246 107.102C88.5486 107.102 89.0886 105.986 89.0886 104.906C89.0886 103.838 88.5486 102.722 87.3246 102.722C86.1006 102.722 85.5606 103.838 85.5606 104.906C85.5606 105.986 86.1006 107.102 87.3246 107.102ZM85.6206 99.2302H87.2286L88.3206 100.946H87.3246L85.6206 99.2302ZM92.7315 100.742V99.4462H94.0995V100.742H92.7315ZM92.7315 108.014V101.81H94.0995V108.014H92.7315ZM104.486 103.886H103.118C103.01 103.118 102.47 102.722 101.702 102.722C100.994 102.722 99.9978 103.106 99.9978 104.978C99.9978 106.01 100.454 107.102 101.642 107.102C102.446 107.102 102.986 106.586 103.118 105.686H104.486C104.234 107.306 103.238 108.182 101.642 108.182C99.6978 108.182 98.6298 106.802 98.6298 104.978C98.6298 103.106 99.6498 101.642 101.69 101.642C103.13 101.642 104.354 102.362 104.486 103.886ZM111.046 101.81V108.014H109.702V107.15H109.678C109.342 107.774 108.598 108.182 107.914 108.182C106.282 108.182 105.598 107.378 105.598 105.746V101.81H106.966V105.614C106.966 106.706 107.398 107.102 108.154 107.102C109.294 107.102 109.678 106.37 109.678 105.41V101.81H111.046ZM107.77 99.1822L107.746 98.5942C107.962 98.5702 108.142 98.5582 108.298 98.5582C108.79 98.5582 109.546 98.7862 109.546 99.5542C109.546 99.8902 109.378 100.25 108.718 100.394L108.694 100.658H108.034V100.142C108.646 100.094 108.79 99.8422 108.79 99.6382C108.79 99.2662 108.622 99.1342 108.19 99.1342C108.034 99.1342 107.902 99.1462 107.77 99.1822ZM117.684 103.442V106.634C117.684 106.97 117.756 107.102 118.008 107.102H118.152C118.212 107.102 118.272 107.09 118.344 107.078V108.026C118.14 108.098 117.708 108.182 117.48 108.182C116.916 108.182 116.532 107.99 116.424 107.426C115.884 107.954 115.008 108.182 114.276 108.182C113.16 108.182 112.152 107.582 112.152 106.37C112.152 104.822 113.388 104.57 114.54 104.438C115.536 104.246 116.4 104.378 116.4 103.562C116.4 102.842 115.656 102.722 115.116 102.722C114.348 102.722 113.808 103.034 113.748 103.706H112.38C112.476 102.11 113.82 101.642 115.2 101.642C116.412 101.642 117.684 102.134 117.684 103.442ZM116.316 105.926V104.906C115.896 105.182 115.248 105.17 114.636 105.278C114.048 105.374 113.52 105.59 113.52 106.31C113.52 106.934 114.3 107.102 114.78 107.102C115.38 107.102 116.316 106.79 116.316 105.926ZM124.188 100.67V103.034H126.636C127.356 103.034 127.896 102.614 127.896 101.846C127.896 100.982 127.452 100.67 126.636 100.67H124.188ZM122.688 108.014V99.4462H126.852C128.388 99.4462 129.396 100.142 129.396 101.57C129.396 102.434 128.952 103.058 128.172 103.394V103.418C129.228 103.646 129.78 104.462 129.78 105.626C129.78 106.97 128.844 108.014 126.624 108.014H122.688ZM124.188 104.114V106.79H126.84C127.752 106.79 128.28 106.298 128.28 105.434C128.28 104.582 127.752 104.114 126.84 104.114H124.188ZM133.789 108.182C131.809 108.182 130.657 106.814 130.657 104.906C130.657 103.022 131.809 101.642 133.789 101.642C135.769 101.642 136.921 103.022 136.921 104.906C136.921 106.814 135.769 108.182 133.789 108.182ZM133.789 107.102C135.013 107.102 135.553 105.986 135.553 104.906C135.553 103.838 135.013 102.722 133.789 102.722C132.565 102.722 132.025 103.838 132.025 104.906C132.025 105.986 132.565 107.102 133.789 107.102ZM133.777 99.9502L132.937 101.03H131.833L133.117 99.3142H134.449L135.745 101.03H134.629L133.777 99.9502ZM134.473 110.066H133.105V108.77H134.473V110.066ZM138.167 108.014V106.394H139.835V108.014C139.823 109.01 139.175 109.718 138.215 109.91V109.178C138.743 109.046 139.007 108.53 138.995 108.014H138.167ZM25.4474 123.014V116.81H26.7434V117.722L26.7674 117.746C27.1874 117.062 27.8834 116.642 28.6994 116.642C30.0554 116.642 30.8954 117.35 30.8954 118.754V123.014H29.5274V119.114C29.4914 118.142 29.1314 117.722 28.3154 117.722C27.4034 117.722 26.8154 118.442 26.8154 119.354V123.014H25.4474ZM38.0741 116.81V122.69C38.0741 124.562 36.994 125.474 35.026 125.474C33.778 125.474 32.386 124.994 32.254 123.542H33.622C33.79 124.322 34.414 124.454 35.11 124.454C36.214 124.454 36.706 123.89 36.706 122.87V121.922H36.682C36.298 122.606 35.59 123.014 34.822 123.014C32.854 123.014 32.038 121.526 32.038 119.75C32.038 118.082 33.082 116.642 34.846 116.642C35.626 116.642 36.334 116.954 36.682 117.662H36.706V116.81H38.0741ZM35.038 121.934C36.25 121.934 36.706 120.842 36.706 119.774C36.706 118.706 36.226 117.722 35.038 117.722C33.826 117.722 33.406 118.85 33.406 119.882C33.406 120.89 33.898 121.934 35.038 121.934ZM44.6473 118.442V121.634C44.6473 121.97 44.7193 122.102 44.9713 122.102H45.1153C45.1753 122.102 45.2353 122.09 45.3073 122.078V123.026C45.1033 123.098 44.6713 123.182 44.4433 123.182C43.8793 123.182 43.4953 122.99 43.3873 122.426C42.8473 122.954 41.9713 123.182 41.2393 123.182C40.1233 123.182 39.1153 122.582 39.1153 121.37C39.1153 119.822 40.3513 119.57 41.5033 119.438C42.4993 119.246 43.3633 119.378 43.3633 118.562C43.3633 117.842 42.6193 117.722 42.0793 117.722C41.3113 117.722 40.7713 118.034 40.7113 118.706H39.3433C39.4393 117.11 40.7833 116.642 42.1633 116.642C43.3753 116.642 44.6473 117.134 44.6473 118.442ZM43.2793 120.926V119.906C42.8593 120.182 42.2113 120.17 41.5993 120.278C41.0113 120.374 40.4833 120.59 40.4833 121.31C40.4833 121.934 41.2633 122.102 41.7433 122.102C42.3433 122.102 43.2793 121.79 43.2793 120.926ZM40.2793 114.23H41.8873L42.9793 115.946H41.9833L40.2793 114.23ZM46.1193 123.014V116.81H47.4153V117.722L47.4393 117.746C47.8593 117.062 48.5553 116.642 49.3713 116.642C50.7273 116.642 51.5673 117.35 51.5673 118.754V123.014H50.1993V119.114C50.1633 118.142 49.8033 117.722 48.9873 117.722C48.0753 117.722 47.4873 118.442 47.4873 119.354V123.014H46.1193ZM53.0099 123.014V114.446H54.3779V117.626H54.4019C54.7379 117.062 55.4459 116.642 56.2619 116.642C57.6179 116.642 58.4579 117.35 58.4579 118.754V123.014H57.0899V119.114C57.0539 118.142 56.6939 117.722 55.8779 117.722C54.9659 117.722 54.3779 118.442 54.3779 119.354V123.014H53.0099ZM60.0085 123.014V121.394H61.6765V123.014C61.6645 124.01 61.0165 124.718 60.0565 124.91V124.178C60.5845 124.046 60.8485 123.53 60.8365 123.014H60.0085ZM72.4242 116.006V123.014H71.1282V122.174H71.1042C70.7322 122.894 69.9642 123.182 69.1842 123.182C67.2282 123.182 66.2802 121.73 66.2802 119.87C66.2802 117.614 67.6122 116.642 68.9682 116.642C69.7362 116.642 70.6122 116.93 71.0322 117.614H71.0562V116.006H69.2202V115.226H71.0562V114.446H72.4242V115.226H73.3722V116.006H72.4242ZM67.6482 119.978C67.6482 121.046 68.1762 122.102 69.3642 122.102C70.5762 122.102 71.1042 120.986 71.1042 119.906C71.1042 118.526 70.4442 117.722 69.3882 117.722C68.1042 117.722 67.6482 118.874 67.6482 119.978ZM74.0576 115.742V114.446H75.4256V115.742H74.0576ZM74.0576 123.014V116.81H75.4256V123.014H74.0576ZM75.4376 124.898H74.0696V123.602H75.4376V124.898ZM82.1122 118.442V121.634C82.1122 121.97 82.1842 122.102 82.4362 122.102H82.5802C82.6402 122.102 82.7002 122.09 82.7722 122.078V123.026C82.5682 123.098 82.1362 123.182 81.9082 123.182C81.3442 123.182 80.9602 122.99 80.8522 122.426C80.3122 122.954 79.4362 123.182 78.7042 123.182C77.5882 123.182 76.5802 122.582 76.5802 121.37C76.5802 119.822 77.8162 119.57 78.9682 119.438C79.9642 119.246 80.8282 119.378 80.8282 118.562C80.8282 117.842 80.0842 117.722 79.5442 117.722C78.7762 117.722 78.2362 118.034 78.1762 118.706H76.8082C76.9042 117.11 78.2482 116.642 79.6282 116.642C80.8402 116.642 82.1122 117.134 82.1122 118.442ZM80.7442 120.926V119.906C80.3242 120.182 79.6762 120.17 79.0642 120.278C78.4762 120.374 77.9482 120.59 77.9482 121.31C77.9482 121.934 78.7282 122.102 79.2082 122.102C79.8082 122.102 80.7442 121.79 80.7442 120.926ZM86.96 125.306V116.81H88.256V117.65H88.28C88.664 116.93 89.396 116.642 90.2 116.642C92.156 116.642 93.104 118.118 93.104 119.942C93.104 121.622 92.252 123.182 90.428 123.182C89.636 123.182 88.772 122.894 88.352 122.21H88.328V125.306H86.96ZM91.736 119.918C91.736 118.802 91.148 117.722 90.02 117.722C88.868 117.722 88.28 118.586 88.28 119.918C88.28 121.166 88.916 122.102 90.02 122.102C91.268 122.102 91.736 120.998 91.736 119.918ZM94.2599 123.014V114.446H95.6279V117.626H95.6519C95.9879 117.062 96.6959 116.642 97.5119 116.642C98.8679 116.642 99.7079 117.35 99.7079 118.754V123.014H98.3399V119.114C98.3039 118.142 97.9439 117.722 97.1279 117.722C96.2159 117.722 95.6279 118.442 95.6279 119.354V123.014H94.2599ZM107.103 116.918L108.135 116.33L108.915 117.686L107.991 118.214C107.607 118.442 107.199 118.598 106.827 118.598C106.743 118.598 106.683 118.586 106.599 118.574V123.014H105.255V122.15H105.231C104.895 122.774 104.151 123.182 103.467 123.182C101.835 123.182 101.151 122.378 101.151 120.746V116.81H102.519V120.614C102.519 121.706 102.951 122.102 103.707 122.102C104.847 122.102 105.231 121.37 105.231 120.41V116.81H106.599V117.914C106.827 117.914 107.103 117.818 107.499 117.59L107.103 116.918ZM115.319 116.918L116.351 116.33L117.131 117.686L116.207 118.214C115.823 118.442 115.415 118.598 115.043 118.598C115.187 118.994 115.259 119.438 115.259 119.906C115.259 121.814 114.107 123.182 112.127 123.182C110.147 123.182 108.995 121.814 108.995 119.906C108.995 118.022 110.147 116.642 112.127 116.642C113.291 116.642 114.179 117.11 114.695 117.914C115.019 117.914 115.295 117.818 115.715 117.59L115.319 116.918ZM112.127 122.102C113.351 122.102 113.891 120.986 113.891 119.906C113.891 118.838 113.351 117.722 112.127 117.722C110.903 117.722 110.363 118.838 110.363 119.906C110.363 120.986 110.903 122.102 112.127 122.102ZM117.498 123.014V116.81H118.794V117.722L118.818 117.746C119.238 117.062 119.934 116.642 120.75 116.642C122.106 116.642 122.946 117.35 122.946 118.754V123.014H121.578V119.114C121.542 118.142 121.182 117.722 120.366 117.722C119.454 117.722 118.866 118.442 118.866 119.354V123.014H117.498ZM130.125 116.81V122.69C130.125 124.562 129.045 125.474 127.077 125.474C125.829 125.474 124.437 124.994 124.305 123.542H125.673C125.841 124.322 126.465 124.454 127.161 124.454C128.265 124.454 128.757 123.89 128.757 122.87V121.922H128.733C128.349 122.606 127.641 123.014 126.873 123.014C124.905 123.014 124.089 121.526 124.089 119.75C124.089 118.082 125.133 116.642 126.897 116.642C127.677 116.642 128.385 116.954 128.733 117.662H128.757V116.81H130.125ZM127.089 121.934C128.301 121.934 128.757 120.842 128.757 119.774C128.757 118.706 128.277 117.722 127.089 117.722C125.877 117.722 125.457 118.85 125.457 119.882C125.457 120.89 125.949 121.934 127.089 121.934Z" fill="#FFFDFD"/>
<path fill-rule="evenodd" clip-rule="evenodd" d="M55.8183 21.8773C55.3236 22.0542 54.9261 22.4693 54.7933 22.9474C54.7585 23.0727 54.7394 31.1242 54.7393 45.7512C54.739 65.7559 54.7485 68.3934 54.8217 68.6399C54.9313 69.0092 55.3041 69.4221 55.6823 69.5931L55.9715 69.7238H64.49C72.7369 69.7238 73.0172 69.7205 73.2792 69.6194C73.6034 69.4943 73.987 69.1545 74.1487 68.8495C74.3264 68.5139 74.3185 67.794 74.133 67.4307C73.9813 67.1337 73.7484 66.9077 73.4042 66.7237L73.1729 66.6001L65.5446 66.5856L57.9163 66.5712V45.7741V24.977H74.0484H90.1805L90.1952 32.2796C90.2099 39.5735 90.21 39.5824 90.3253 39.8315C90.8185 40.898 92.1752 41.1165 92.9501 40.2544C93.39 39.7648 93.3598 40.4263 93.3598 31.2715C93.3598 23.2798 93.3577 23.1121 93.2514 22.8281C93.1072 22.4429 92.8864 22.1858 92.5302 21.9884L92.2368 21.8258L74.1316 21.8144C58.9987 21.8048 55.9922 21.8151 55.8183 21.8773ZM62.9743 31.6057C62.7207 31.6665 62.3326 31.9085 62.1589 32.1141C61.8791 32.4452 61.7929 32.7223 61.8141 33.2219C61.8304 33.6084 61.8566 33.71 61.9986 33.9398C62.0897 34.0871 62.2701 34.2884 62.3995 34.3871C62.8858 34.7581 62.0566 34.7348 74.1889 34.719L85.17 34.7046L85.4361 34.5735C86.0262 34.2829 86.3182 33.8094 86.3182 33.1427C86.3182 32.476 86.0262 32.0025 85.4361 31.7119L85.17 31.5808L74.1589 31.5724C68.1029 31.5679 63.0698 31.5828 62.9743 31.6057ZM62.9454 39.0282C62.4673 39.1576 62.0802 39.4967 61.8896 39.9532C61.7706 40.2382 61.7811 40.8926 61.9093 41.1749C62.0557 41.4974 62.3307 41.7873 62.6499 41.9558L62.9288 42.103H74.0494H85.17L85.4251 41.9851C86.6356 41.4253 86.6351 39.7084 85.4244 39.1058L85.17 38.9792L74.1863 38.9689C65.4501 38.9607 63.15 38.9728 62.9454 39.0282ZM86.5122 44.2134C81.7593 44.5331 77.7203 47.9153 76.5741 52.5352C76.3908 53.2741 76.323 53.717 76.2693 54.5272C75.9751 58.9648 78.4057 63.1453 82.4309 65.1252C84.0827 65.9376 85.7915 66.296 87.6873 66.2276C88.6745 66.192 89.3016 66.0955 90.2689 65.8305C93.9199 64.8301 96.9323 61.7866 97.9054 58.1151C98.1532 57.1801 98.2397 56.5987 98.2742 55.6368C98.3841 52.5644 97.3209 49.7745 95.1989 47.5677C93.6017 45.9065 91.5974 44.8169 89.336 44.3804C88.8823 44.2928 87.2348 44.1347 87.1148 44.1672C87.0997 44.1714 86.8285 44.1921 86.5122 44.2134ZM63.0505 46.4072C62.535 46.4939 62.0635 46.8937 61.8873 47.3935C61.8424 47.5205 61.806 47.7879 61.8063 47.9876C61.8069 48.4584 61.9721 48.822 62.3272 49.1347C62.802 49.5529 62.4587 49.5327 68.8215 49.5161L74.4876 49.5015L74.7548 49.3649C75.6991 48.8825 75.9072 47.5822 75.1597 46.8345C74.9297 46.6043 74.6716 46.4764 74.2925 46.4044C73.948 46.3391 63.4401 46.3417 63.0505 46.4072ZM92.2228 51.282C93.045 51.5897 93.4656 52.6348 93.0722 53.3925C92.9671 53.595 92.2178 54.3767 90.2004 56.3886C87.4927 59.0888 87.4683 59.1114 87.1467 59.2038C86.7639 59.3138 86.4132 59.2872 86.0329 59.1194C85.6487 58.9498 82.8984 56.1931 82.7251 55.8038C82.2717 54.7857 83.0507 53.5843 84.1643 53.5843C84.7033 53.5843 84.9313 53.7269 85.8267 54.6246C86.2783 55.0772 86.6728 55.4476 86.7035 55.4476C86.7341 55.4476 87.6589 54.5459 88.7585 53.4437C89.858 52.3416 90.8315 51.4007 90.9217 51.3529C91.3148 51.1445 91.7867 51.1188 92.2228 51.282ZM62.8166 53.8762C62.3641 54.0506 62.0181 54.4023 61.8692 54.8392C61.7671 55.139 61.7921 55.7135 61.9195 55.9956C62.055 56.2957 62.36 56.6215 62.6549 56.7812C62.8737 56.8998 62.879 56.8999 67.3071 56.9149C72.3816 56.932 72.0815 56.9576 72.5739 56.465C72.9321 56.1067 73.0609 55.7544 73.0236 55.2347C72.9812 54.6439 72.6446 54.1613 72.1046 53.9173C71.8632 53.8082 71.7679 53.806 67.4208 53.8089C64.1619 53.8111 62.9392 53.8289 62.8166 53.8762ZM80.3887 70.5596L80.404 74.8753L80.5301 75.1494C80.8464 75.837 81.574 76.2132 82.2903 76.0595C82.4882 76.0171 83.2552 75.6061 84.9203 74.6504L87.2708 73.3012L89.5895 74.6351C91.175 75.5472 92.0069 75.9947 92.2205 76.0505C92.9579 76.2431 93.7797 75.7946 94.0541 75.0498C94.1012 74.9221 94.1195 73.7175 94.1226 70.5565L94.1268 66.2376L93.894 66.3825C93.401 66.6893 92.0961 67.2884 91.4151 67.5206C90.0883 67.9731 89.0986 68.1505 87.6352 68.1981C85.28 68.2746 82.9125 67.6864 80.9029 66.5253C80.6349 66.3705 80.4062 66.2438 80.3946 66.2438C80.3829 66.2438 80.3804 68.186 80.3887 70.5596Z" fill="#FFFDFD"/>
</svg>
